<?xml version="1.0" standalone="no"?>
<!DOCTYPE svg PUBLIC "-//W3C//DTD SVG 1.1//EN" "http://www.w3.org/Graphics/SVG/1.1/DTD/svg11.dtd" >
<svg xmlns="http://www.w3.org/2000/svg">
<metadata>Generated by IcoMoon</metadata>
<defs>
<font id="linx-icon" horiz-adv-x="1024">
<font-face units-per-em="1024" ascent="960" descent="-64" />
<missing-glyph horiz-adv-x="1024" />
<glyph unicode="&#x20;" horiz-adv-x="512" d="" />
<glyph unicode="&#xe900;" glyph-name="archives" d="M808.448 598.528v207.872h-654.848v-660.48h51.2v609.28h552.448v-156.672h-527.872v-508.928h641.024v512zM819.2 140.8h-538.624v409.6h538.624zM651.264 705.024h51.2v-51.2h-51.2v51.2zM497.152 705.024h51.2v-51.2h-51.2v51.2zM719.36 434.176v51.2h-204.8v-51.2h204.8zM360.448 485.376h51.2v-51.2h-51.2v51.2zM719.36 331.776v51.2h-204.8v-51.2h204.8zM360.448 382.976h51.2v-51.2h-51.2v51.2zM719.36 229.376v51.2h-204.8v-51.2h204.8zM360.448 280.576h51.2v-51.2h-51.2v51.2z" />
<glyph unicode="&#xe901;" glyph-name="arrow-right" d="M599.040 422.4h-333.312c-14.138 0-25.6 11.462-25.6 25.6s11.462 25.6 25.6 25.6h333.312c14.138 0 25.6-11.462 25.6-25.6s-11.462-25.6-25.6-25.6zM614.4 288.768c-13.983 0.203-25.24 11.585-25.24 25.597 0 6.98 2.794 13.308 7.324 17.927l114.684 115.708-115.712 115.712c-4.982 4.786-8.077 11.503-8.077 18.944 0 14.499 11.754 26.253 26.253 26.253 7.059 0 13.467-2.786 18.185-7.318l133.623-133.624c4.677-4.64 7.572-11.070 7.572-18.176s-2.895-13.536-7.571-18.174l-133.634-137.218c-4.352-3.53-9.958-5.667-16.064-5.667-0.473 0-0.943 0.013-1.409 0.038z" />
<glyph unicode="&#xe902;" glyph-name="arrow-right-36" d="M752.64 422.4h-333.312c-14.138 0-25.6 11.462-25.6 25.6s11.462 25.6 25.6 25.6h333.312c14.138 0 25.6-11.462 25.6-25.6s-11.462-25.6-25.6-25.6zM404.992 288.768c-0.544-0.041-1.179-0.065-1.82-0.065-6.122 0-11.742 2.149-16.147 5.734l-133.585 135.643c-4.677 4.64-7.572 11.070-7.572 18.176s2.895 13.536 7.571 18.174l133.634 135.17c4.652 4.652 11.078 7.529 18.176 7.529 14.196 0 25.705-11.508 25.705-25.705 0-7.098-2.877-13.524-7.529-18.176l-116.224-117.248 115.712-115.712c4.527-4.614 7.32-10.942 7.32-17.923 0-14.012-11.257-25.395-25.221-25.597z" />
<glyph unicode="&#xe903;" glyph-name="attachment" d="M694.784 726.016c12.442 0 22.528 10.086 22.528 22.528s-10.086 22.528-22.528 22.528h-29.184c-12.442 0-22.528-10.086-22.528-22.528s10.086-22.528 22.528-22.528zM551.936 716.288h-150.016c-12.442 0-22.528-10.086-22.528-22.528s10.086-22.528 22.528-22.528h149.504c12.442 0 22.528 10.086 22.528 22.528s-10.086 22.528-22.528 22.528zM551.936 629.248h-150.016c-12.442 0-22.528-10.086-22.528-22.528s10.086-22.528 22.528-22.528h149.504c12.442 0 22.528 10.086 22.528 22.528s-10.086 22.528-22.528 22.528zM792.064 864.768h-479.744c-12.442 0-22.528-10.086-22.528-22.528v-237.568l-73.728-71.168c-4.113-4.083-6.659-9.739-6.659-15.991 0-0.138 0.001-0.276 0.004-0.414v-360.939c0-12.442 10.086-22.528 22.528-22.528h375.296c12.442 0 22.528 10.086 22.528 22.528s-10.086 22.528-22.528 22.528h-351.232v297.984h352.768c12.442 0 22.528 10.086 22.528 22.528s-10.086 22.528-22.528 22.528h-273.92v298.496h433.152v-377.344c0-12.442 10.086-22.528 22.528-22.528s22.528 10.086 22.528 22.528v399.36c0 0.016 0 0.034 0 0.052 0 11.901-9.229 21.647-20.921 22.472zM268.8 521.728l21.504 20.48v-20.48zM695.808 420.864c-3.892 3.297-8.971 5.301-14.517 5.301-12.442 0-22.528-10.086-22.528-22.528 0-5.547 2.004-10.625 5.329-14.55l73.701-74.719-72.192-74.24c-3.297-3.892-5.301-8.971-5.301-14.517 0-12.442 10.086-22.528 22.528-22.528 5.547 0 10.625 2.004 14.55 5.329l89.567 90.597c4.042 4.071 6.541 9.68 6.541 15.872s-2.498 11.801-6.542 15.873z" />
<glyph unicode="&#xe904;" glyph-name="barcode" d="M352.256 79.872h-153.6c-14.138 0-25.6 11.462-25.6 25.6v635.392c0 14.138 11.462 25.6 25.6 25.6h153.6c14.138 0 25.6-11.462 25.6-25.6s-11.462-25.6-25.6-25.6h-126.464v-584.192h126.464c14.138 0 25.6-11.462 25.6-25.6s-11.462-25.6-25.6-25.6zM839.68 79.36h-153.6c-14.138 0-25.6 11.462-25.6 25.6s11.462 25.6 25.6 25.6h128v583.68h-126.464c-14.138 0-25.6 11.462-25.6 25.6s11.462 25.6 25.6 25.6h153.6c14.138 0 25.6-11.462 25.6-25.6v-634.88c0-0.014 0-0.030 0-0.046 0-14.138-11.462-25.6-25.6-25.6-0.54 0-1.077 0.017-1.609 0.050zM296.448 613.376h102.4v-381.952h-102.4v381.952zM541.184 613.376h102.4v-381.952h-102.4v381.952zM444.928 613.888h51.2v-381.952h-51.2v381.952zM688.64 613.376h51.2v-381.952h-51.2v381.952z" />
<glyph unicode="&#xe905;" glyph-name="bars" d="M224.256 601.6h657.92v153.6h-657.92zM275.456 704h556.032v-51.2h-556.544zM224.256 372.224h657.92v153.6h-657.92zM275.456 474.624h556.032v-51.2h-556.544zM224.256 143.872h657.92v150.528h-657.92zM275.456 246.272h556.032v-51.2h-556.544z" />
<glyph unicode="&#xe906;" glyph-name="basket" d="M958.976 557.056c-4.706 5.918-11.893 9.69-19.962 9.728h-204.806l-107.52 249.344c-3.767 9.744-13.061 16.529-23.939 16.529-14.138 0-25.6-11.462-25.6-25.6 0-3.958 0.898-7.705 2.501-11.051l112.574-263.526c1.959-4.666 5.132-8.498 9.128-11.208l0.088-0.056c3.653-2.23 8.069-3.56 12.793-3.584h192.007l-102.4-400.384h-586.24l-102.4 400.384h432.64c14.138 0 25.6 11.462 25.6 25.6s-11.462 25.6-25.6 25.6h-164.864l97.28 227.328c1.537 3.191 2.435 6.939 2.435 10.897 0 14.138-11.462 25.6-25.6 25.6-10.878 0-20.172-6.785-23.879-16.354l-106.044-249.007h-242.176c-0.070 0.001-0.153 0.001-0.236 0.001-14.138 0-25.6-11.462-25.6-25.6 0-2.182 0.273-4.3 0.787-6.322l112.602-451.407c2.852-11.259 12.895-19.457 24.852-19.457 0.083 0 0.166 0 0.249 0.001h628.723c0.070-0.001 0.153-0.001 0.236-0.001 11.957 0 22 8.198 24.814 19.28l112.678 451.761c0.367 1.624 0.577 3.489 0.577 5.404 0 6.122-2.149 11.742-5.734 16.147zM292.864 200.704c0-14.138 11.462-25.6 25.6-25.6h409.6c14.138 0 25.6 11.462 25.6 25.6s-11.462 25.6-25.6 25.6h-409.6c-14.138 0-25.6-11.462-25.6-25.6z" />
<glyph unicode="&#xe907;" glyph-name="bell" d="M554.496 666.624c-14.138 0-25.6 11.462-25.6 25.6v11.776c0 14.138 11.462 25.6 25.6 25.6s25.6-11.462 25.6-25.6v-10.752c0.013-0.305 0.020-0.664 0.020-1.024 0-14.138-11.462-25.6-25.6-25.6-0.007 0-0.014 0-0.022 0zM850.432 167.424h-676.864c-14.138 0-25.6 11.462-25.6 25.6s11.462 25.6 25.6 25.6h651.264v102.4c0.068 2.3 0.107 5.006 0.107 7.721 0 132.835-92.649 244.031-216.852 272.493-14.327 2.409-23.708 13.090-23.708 25.962 0 14.318 11.607 25.926 25.926 25.926 1.446 0 2.865-0.118 4.246-0.346 149.1-33.564 258.923-164.981 258.923-322.049 0-0.353-0.001-0.705-0.002-1.058s0 0.055 0 0.055v-137.728c-0.465-12.859-10.346-23.271-22.931-24.567zM681.472 294.4h-507.904c-14.138 0-25.6 11.462-25.6 25.6-0.004 0.608-0.006 1.328-0.006 2.048 0 187.194 151.75 338.944 338.944 338.944 0.002 0 0.004 0 0.006 0 14.138 0 25.6-11.462 25.6-25.6s-11.462-25.6-25.6-25.6c-150.385-0.308-273.668-115.933-286.136-263.134l481.208-1.058c14.138 0 25.6-11.462 25.6-25.6s-11.462-25.6-25.6-25.6zM574.464 377.344c-14.138 0-25.6 11.462-25.6 25.6v124.416c0 14.138 11.462 25.6 25.6 25.6s25.6-11.462 25.6-25.6v-124.928c-0.287-13.917-11.636-25.088-25.595-25.088-0.002 0-0.004 0-0.005 0zM460.8 377.344c-14.138 0-25.6 11.462-25.6 25.6v124.416c0 14.138 11.462 25.6 25.6 25.6s25.6-11.462 25.6-25.6v-124.928c-0.287-13.917-11.636-25.088-25.595-25.088-0.002 0-0.004 0-0.005 0z" />
<glyph unicode="&#xe908;" glyph-name="block" d="M512 167.424c-0.137 0-0.299 0-0.462 0-75.936 0-144.8 30.276-195.18 79.416l0.057-0.056c-50.498 50.728-81.716 120.685-81.716 197.933 0 154.958 125.618 280.576 280.576 280.576 22.813 0 44.99-2.723 66.224-7.861 9.845-2.382 18.464-12.789 18.464-25.208 0-14.508-11.761-26.268-26.268-26.268-2.088 0-4.119 0.244-6.066 0.704-16.585 4.348-35.83 6.865-55.662 6.865-125.327 0-227.178-100.511-229.341-225.322 0.051-54.949 19.362-105.174 51.52-144.481l328.893 352.151c4.614 4.525 10.941 7.318 17.92 7.318s13.306-2.793 17.924-7.322c56.685-51.526 92.13-125.56 92.13-207.872 0-154.409-124.73-279.685-278.93-280.571zM369.664 269.824c37.696-28.254 85.253-45.242 136.778-45.242 126.681 0 229.376 102.695 229.376 229.376 0 56.396-20.352 108.037-54.113 147.982z" />
<glyph unicode="&#xe909;" glyph-name="buildings" d="M303.616 760.832h42.496v-87.040h-42.496v87.040zM390.656 760.832h42.496v-87.040h-42.496v87.040zM303.616 626.176h42.496v-87.040h-42.496v87.040zM390.656 626.176h42.496v-87.040h-42.496v87.040zM303.616 491.52h42.496v-87.040h-42.496v87.040zM390.656 491.52h42.496v-87.040h-42.496v87.040zM303.616 356.864h42.496v-87.040h-42.496v87.040zM390.656 356.864h42.496v-87.040h-42.496v87.040zM303.616 222.208h42.496v-87.040h-42.496v87.040zM390.656 222.208h42.496v-87.040h-42.496v87.040zM478.208 760.832h42.496v-87.040h-42.496v87.040zM579.584 404.48h42.496v-42.496h-42.496v42.496zM667.648 404.48h42.496v-42.496h-42.496v42.496zM755.712 404.48h42.496v-42.496h-42.496v42.496zM667.648 177.664h42.496v-42.496h-42.496v42.496zM579.584 518.144h42.496v-42.496h-42.496v42.496zM667.648 518.144h42.496v-42.496h-42.496v42.496zM755.712 518.144h42.496v-42.496h-42.496v42.496zM579.584 291.328h42.496v-42.496h-42.496v42.496zM667.648 291.328h42.496v-42.496h-42.496v42.496zM755.712 291.328h42.496v-42.496h-42.496v42.496zM755.712 177.664h42.496v-42.496h-42.496v42.496zM579.584 177.664h42.496v-42.496h-42.496v42.496zM888.32 618.496h-13.312v128.512c0 14.138-11.462 25.6-25.6 25.6h-183.808c-14.138 0-25.6-11.462-25.6-25.6v-56.32h-33.28v139.776c0 14.138-11.462 25.6-25.6 25.6h-358.4c-14.138 0-25.6-11.462-25.6-25.6v-689.664c0-14.138 11.462-25.6 25.6-25.6s25.6 11.462 25.6 25.6v665.6h307.2v-187.904h-51.2c-14.138 0-25.6-11.462-25.6-25.6v-460.8c0-14.138 11.462-25.6 25.6-25.6s25.6 11.462 25.6 25.6v435.2h332.288v-477.696h-726.528c-14.138 0-25.6-11.462-25.6-25.6s11.462-25.6 25.6-25.6h752.64c14.138 0 25.6 11.462 25.6 25.6v528.896c0 14.138-11.462 25.6-25.6 25.6zM692.736 720.896h131.072v-102.4h-35.328v46.592c0 14.138-11.462 25.6-25.6 25.6h-70.144zM608.256 638.976h129.024v-21.504h-128.512z" />
<glyph unicode="&#xe90a;" glyph-name="calculator" d="M753.152 758.272h-482.304c-14.138 0-25.6-11.462-25.6-25.6v-569.344c0-14.138 11.462-25.6 25.6-25.6h482.816c14.138 0 25.6 11.462 25.6 25.6v569.344c0 0.002 0 0.003 0 0.005 0 14.138-11.462 25.6-25.6 25.6-0.18 0-0.36-0.002-0.539-0.006zM727.552 188.416h-431.104v518.656h431.616zM350.72 432.128h181.248c14.138 0 25.6 11.462 25.6 25.6s-11.462 25.6-25.6 25.6h-153.6v147.456h271.36v-147.456h-35.328c-14.138 0-25.6-11.462-25.6-25.6s11.462-25.6 25.6-25.6h60.416c14.138 0 25.6 11.462 25.6 25.6v198.656c0 14.138-11.462 25.6-25.6 25.6h-324.096c-14.138 0-25.6-11.462-25.6-25.6v-198.656c0-14.138 11.462-25.6 25.6-25.6zM360.96 385.536h62.976c1.414 0 2.56-1.146 2.56-2.56v-57.344c0-1.414-1.146-2.56-2.56-2.56h-62.976c-1.414 0-2.56 1.146-2.56 2.56v57.344c0 1.414 1.146 2.56 2.56 2.56zM360.96 284.672h62.976c1.414 0 2.56-1.146 2.56-2.56v-57.344c0-1.414-1.146-2.56-2.56-2.56h-62.976c-1.414 0-2.56 1.146-2.56 2.56v57.344c0 1.414 1.146 2.56 2.56 2.56zM480.256 385.536h62.976c1.414 0 2.56-1.146 2.56-2.56v-57.344c0-1.414-1.146-2.56-2.56-2.56h-62.976c-1.414 0-2.56 1.146-2.56 2.56v57.344c0 1.414 1.146 2.56 2.56 2.56zM480.256 284.672h62.976c1.414 0 2.56-1.146 2.56-2.56v-57.344c0-1.414-1.146-2.56-2.56-2.56h-62.976c-1.414 0-2.56 1.146-2.56 2.56v57.344c0 1.414 1.146 2.56 2.56 2.56zM600.064 385.536h62.976c1.414 0 2.56-1.146 2.56-2.56v-57.344c0-1.414-1.146-2.56-2.56-2.56h-62.976c-1.414 0-2.56 1.146-2.56 2.56v57.344c0 1.414 1.146 2.56 2.56 2.56zM600.064 284.672h62.976c1.414 0 2.56-1.146 2.56-2.56v-57.344c0-1.414-1.146-2.56-2.56-2.56h-62.976c-1.414 0-2.56 1.146-2.56 2.56v57.344c0 1.414 1.146 2.56 2.56 2.56z" />
<glyph unicode="&#xe90b;" glyph-name="calendar-chart" d="M850.944 374.272h-35.84v35.328c0 8.483-6.877 15.36-15.36 15.36h-51.2c-8.483 0-15.36-6.877-15.36-15.36v-35.328h-76.288v35.328c0 8.483-6.877 15.36-15.36 15.36h-51.2c-8.483 0-15.36-6.877-15.36-15.36v-35.328h-19.968c-8.483 0-15.36-6.877-15.36-15.36v-64.512c0-8.483 6.877-15.36 15.36-15.36h281.6v-179.2h-266.24v143.36c0 8.483-6.877 15.36-15.36 15.36s-15.36-6.877-15.36-15.36v-161.28c0-8.483 6.877-15.36 15.36-15.36h296.96c8.483 0 15.36 6.877 15.36 15.36v212.48c0 8.483-6.877 15.36-15.36 15.36h-281.6v35.84h56.832v-16.384c0-8.483 6.877-15.36 15.36-15.36s15.36 6.877 15.36 15.36v16.384h127.488v-16.384c0-8.483 6.877-15.36 15.36-15.36s15.36 6.877 15.36 15.36v16.384h20.48v-16.896c0-8.483 6.877-15.36 15.36-15.36s15.36 6.877 15.36 15.36v32.256c-1.026 7.577-7.452 13.356-15.229 13.356-0.407 0-0.81-0.016-1.208-0.047zM604.672 374.272v19.968h21.504v-19.968zM762.88 374.272v19.968h21.504v-19.968zM600.576 249.344c-5.655 0-10.24-4.585-10.24-10.24v0c0-5.655 4.585-10.24 10.24-10.24s10.24 4.585 10.24 10.24v0c0 5.655-4.585 10.24-10.24 10.24zM651.264 249.344c-5.655 0-10.24-4.585-10.24-10.24v0c0-5.655 4.585-10.24 10.24-10.24s10.24 4.585 10.24 10.24v0c0 5.655-4.585 10.24-10.24 10.24zM701.952 249.344c-5.655 0-10.24-4.585-10.24-10.24v0c0-5.655 4.585-10.24 10.24-10.24s10.24 4.585 10.24 10.24v0c0 5.655-4.585 10.24-10.24 10.24zM752.64 249.344c-5.655 0-10.24-4.585-10.24-10.24v0c0-5.655 4.585-10.24 10.24-10.24s10.24 4.585 10.24 10.24v0c0 5.655-4.585 10.24-10.24 10.24zM802.816 249.344c-5.655 0-10.24-4.585-10.24-10.24v0c0-5.655 4.585-10.24 10.24-10.24s10.24 4.585 10.24 10.24v0c0 5.655-4.585 10.24-10.24 10.24zM601.088 197.12c-5.655 0-10.24-4.585-10.24-10.24v0c0-5.655 4.585-10.24 10.24-10.24s10.24 4.585 10.24 10.24v0c0 5.655-4.585 10.24-10.24 10.24zM651.776 197.12c-5.655 0-10.24-4.585-10.24-10.24v0c0-5.655 4.585-10.24 10.24-10.24s10.24 4.585 10.24 10.24v0c0 5.655-4.585 10.24-10.24 10.24zM701.952 197.12c-5.655 0-10.24-4.585-10.24-10.24v0c0-5.655 4.585-10.24 10.24-10.24s10.24 4.585 10.24 10.24v0c0 5.655-4.585 10.24-10.24 10.24zM752.64 197.12c-5.655 0-10.24-4.585-10.24-10.24v0c0-5.655 4.585-10.24 10.24-10.24s10.24 4.585 10.24 10.24v0c0 5.655-4.585 10.24-10.24 10.24zM803.328 197.12c-5.655 0-10.24-4.585-10.24-10.24v0c0-5.655 4.585-10.24 10.24-10.24s10.24 4.585 10.24 10.24v0c0 5.655-4.585 10.24-10.24 10.24zM601.088 145.408c-5.655 0-10.24-4.585-10.24-10.24v0c0-5.655 4.585-10.24 10.24-10.24s10.24 4.585 10.24 10.24v0c0 5.655-4.585 10.24-10.24 10.24zM651.776 145.408c-5.655 0-10.24-4.585-10.24-10.24v0c0-5.655 4.585-10.24 10.24-10.24s10.24 4.585 10.24 10.24v0c0 5.655-4.585 10.24-10.24 10.24zM702.464 145.408c-5.655 0-10.24-4.585-10.24-10.24v0c0-5.655 4.585-10.24 10.24-10.24s10.24 4.585 10.24 10.24v0c0 5.655-4.585 10.24-10.24 10.24zM752.64 145.408c-5.655 0-10.24-4.585-10.24-10.24v0c0-5.655 4.585-10.24 10.24-10.24s10.24 4.585 10.24 10.24v0c0 5.655-4.585 10.24-10.24 10.24zM803.328 145.408c-5.655 0-10.24-4.585-10.24-10.24v0c0-5.655 4.585-10.24 10.24-10.24s10.24 4.585 10.24 10.24v0c0 5.655-4.585 10.24-10.24 10.24zM819.2 464.384c0-14.138 11.462-25.6 25.6-25.6s25.6 11.462 25.6 25.6c0.001 0.302 0.001 0.66 0.001 1.017 0 58.33-13.023 113.619-36.32 163.117-3.175 6.53-12.036 12.564-22.305 12.564-14.17 0-25.658-11.487-25.658-25.658 0-3.901 0.87-7.598 2.428-10.909 19.33-40.766 30.655-88.754 30.655-139.387 0-0.262 0-0.523-0.001-0.785zM489.984 131.072c-175.963 10.064-314.844 155.213-314.844 332.8s138.882 322.736 313.958 332.759c2.078 0.056 3.486 0.065 4.896 0.065 65.389 0 126.319-19.094 177.519-52.009 2.664-1.847 7.536-3.414 12.775-3.414 14.196 0 25.703 11.508 25.703 25.703 0 8.957-4.581 16.843-11.528 21.445-58.138 37.949-129.198 60.487-205.522 60.487-1.040 0-2.079-0.004-3.117-0.013-203.491-10.843-364.516-178.616-364.516-383.999s161.025-373.156 363.715-383.959c15.1-0.041 26.561 11.421 26.561 25.559s-11.462 25.6-25.6 25.6zM684.032 671.744l-102.4-111.104-114.176-51.2c-7.375-3.496-12.736-10.206-14.31-18.27l-18.97-94.37-111.104-56.832c-8.304-4.358-13.871-12.921-13.871-22.784 0-14.165 11.483-25.647 25.647-25.647 4.302 0 8.356 1.059 11.917 2.931l122.227 62.397c6.847 3.624 11.784 10.076 13.286 17.758l16.922 91.81 107.008 51.2c3.132 0.929 5.859 2.33 8.256 4.143l106.944 115.153c4.996 4.684 8.108 11.324 8.108 18.692 0 14.138-11.462 25.6-25.6 25.6-8.006 0-15.153-3.675-19.848-9.43z" />
<glyph unicode="&#xe90c;" glyph-name="calendar-clock" d="M911.36 257.536c-2.327 2.261-5.034 4.148-8.011 5.555-3.138 1.281-6.57 1.98-10.165 1.98s-7.026-0.699-10.166-1.968c-2.976-1.419-5.683-3.306-8.017-5.574-4.434-4.12-7.204-9.993-7.204-16.513 0-0.492 0.016-0.981 0.047-1.466-0.259-1.396-0.404-3.080-0.404-4.798s0.146-3.402 0.426-5.040c1.315-3.036 3.222-5.765 5.596-8.006 2.235-2.436 4.972-4.352 8.055-5.59 1.687-0.411 3.453-0.616 5.268-0.616s3.581 0.205 5.278 0.594c-0.071-0.032 0.032-0.032 0.135-0.032 6.955 0 13.22 2.95 17.613 7.667 2.398 2.266 4.306 4.995 5.588 8.051 0.313 1.618 0.459 3.301 0.459 5.019s-0.146 3.402-0.426 5.040c0.062 0.345 0.083 0.953 0.083 1.565 0 5.25-1.549 10.138-4.216 14.232zM856.064 320c-24.945 16.028-55.387 25.565-88.055 25.6-88.406-5.044-158.178-77.958-158.178-167.168s69.773-162.124 157.725-167.148c11.024 0.034 20.080 6.497 23.933 15.683l0.063 0.169c0.214 1.231 0.337 2.649 0.337 4.096s-0.122 2.865-0.358 4.244c0.021 13.99-11.441 25.452-25.579 25.452-64.032 0.58-115.716 52.622-115.716 116.736 0 64.474 52.266 116.74 116.74 116.74 0.36 0 0.72-0.002 1.079-0.005 0.022 0.001 0.114 0.001 0.205 0.001 23.129 0 44.652-6.877 62.635-18.699 3.537-2.366 8.41-3.933 13.649-3.933 14.196 0 25.703 11.508 25.703 25.703 0 8.957-4.581 16.843-11.528 21.445zM830.976 192h-48.64v48.64c0 14.138-11.462 25.6-25.6 25.6s-25.6-11.462-25.6-25.6v-74.24c0-14.138 11.462-25.6 25.6-25.6h74.24c14.138 0 25.6 11.462 25.6 25.6s-11.462 25.6-25.6 25.6zM553.984 121.344h-409.6v352.256c0 14.138-11.462 25.6-25.6 25.6s-25.6-11.462-25.6-25.6v-377.856c0-14.138 11.462-25.6 25.6-25.6h436.736c14.138 0 25.6 11.462 25.6 25.6s-11.462 25.6-25.6 25.6zM117.76 561.152h695.296v-143.36c0-14.138 11.462-25.6 25.6-25.6s25.6 11.462 25.6 25.6v168.96c0 14.138-11.462 25.6-25.6 25.6h-695.296v102.4h161.28v-51.2c0-14.138 11.462-25.6 25.6-25.6s25.6 11.462 25.6 25.6v51.2h332.8v-51.2c0-14.138 11.462-25.6 25.6-25.6s25.6 11.462 25.6 25.6v51.2h73.728v-51.2c0-14.138 11.462-25.6 25.6-25.6s25.6 11.462 25.6 25.6v75.776c0 14.138-11.462 25.6-25.6 25.6h-99.84v92.672c0 14.138-11.462 25.6-25.6 25.6h-126.464c-13.462-0.834-24.064-11.956-24.064-25.554 0-0.016 0-0.032 0-0.049v-92.669h-204.8v92.672c0 14.138-11.462 25.6-25.6 25.6h-128c-14.138 0-25.6-11.462-25.6-25.6v-92.672h-61.44c-14.138 0-25.6-11.462-25.6-25.6v-153.6c0.565-13.691 11.801-24.576 25.58-24.576 0.007 0 0.014 0 0.022 0zM614.4 832h75.264v-67.072h-75.264zM230.4 832h74.24v-67.072h-75.264zM230.912 433.664c14.138 0 25.6 11.462 25.6 25.6s-11.462 25.6-25.6 25.6v0c-14.138 0-25.6-11.462-25.6-25.6s11.462-25.6 25.6-25.6zM354.304 433.664c14.138 0 25.6 11.462 25.6 25.6s-11.462 25.6-25.6 25.6v0c-14.138 0-25.6-11.462-25.6-25.6s11.462-25.6 25.6-25.6zM476.672 433.664c14.138 0 25.6 11.462 25.6 25.6s-11.462 25.6-25.6 25.6v0c-14.138 0-25.6-11.462-25.6-25.6s11.462-25.6 25.6-25.6zM599.040 482.816c-14.138 0-25.6-11.462-25.6-25.6s11.462-25.6 25.6-25.6v0c14.138 0 25.6 11.462 25.6 25.6s-11.462 25.6-25.6 25.6zM721.92 482.816c-14.138 0-25.6-11.462-25.6-25.6s11.462-25.6 25.6-25.6v0c14.138 0 25.6 11.462 25.6 25.6s-11.462 25.6-25.6 25.6zM230.912 311.808v0c14.138 0 25.6 11.462 25.6 25.6s-11.462 25.6-25.6 25.6v0c-14.138 0-25.6-11.462-25.6-25.6s11.462-25.6 25.6-25.6zM354.304 311.808v0c14.138 0 25.6 11.462 25.6 25.6s-11.462 25.6-25.6 25.6v0c-14.138 0-25.6-11.462-25.6-25.6s11.462-25.6 25.6-25.6zM476.672 311.808v0c14.138 0 25.6 11.462 25.6 25.6s-11.462 25.6-25.6 25.6v0c-14.138 0-25.6-11.462-25.6-25.6s11.462-25.6 25.6-25.6zM599.552 311.808c14.138 0 25.6 11.462 25.6 25.6s-11.462 25.6-25.6 25.6v0c-14.138 0-25.6-11.462-25.6-25.6s11.462-25.6 25.6-25.6zM231.424 192v0c14.138 0 25.6 11.462 25.6 25.6s-11.462 25.6-25.6 25.6v0c-14.138 0-25.6-11.462-25.6-25.6s11.462-25.6 25.6-25.6zM354.816 192v0c14.138 0 25.6 11.462 25.6 25.6s-11.462 25.6-25.6 25.6v0c-14.138 0-25.6-11.462-25.6-25.6s11.462-25.6 25.6-25.6zM477.184 192v0c14.138 0 25.6 11.462 25.6 25.6s-11.462 25.6-25.6 25.6v0c-14.138 0-25.6-11.462-25.6-25.6s11.462-25.6 25.6-25.6z" />
<glyph unicode="&#xe90d;" glyph-name="calendar-crosshairs" d="M865.28 257.536c-6.124-2.937-10.278-9.088-10.278-16.209 0-2.66 0.58-5.185 1.62-7.455 6.927-14.766 10.997-32.196 10.997-50.576 0-67.299-54.557-121.856-121.856-121.856s-121.856 54.557-121.856 121.856c0 67.299 54.557 121.856 121.856 121.856 0.078 0 0.156 0 0.233 0 24.595-0.070 47.449-7.517 66.472-20.243 2.312-1.52 5.677-2.587 9.292-2.587 9.922 0 17.966 8.043 17.966 17.966 0 6.308-3.251 11.856-8.168 15.062-24.257 16.087-53.961 25.642-85.896 25.642-0.066 0-0.133 0-0.199 0-0.191 0.001-0.429 0.001-0.668 0.001-87.376 0-158.208-70.832-158.208-158.208s70.832-158.208 158.208-158.208c87.376 0 158.208 70.832 158.208 158.208 0 24.154-5.413 47.043-15.091 67.521-2.64 4.828-8.616 8.709-15.5 8.709-2.579 0-5.030-0.545-7.245-1.525zM747.52 248.832c7.566-0.701 14.512-2.704 20.835-5.788 1.473-0.529 3.585-0.926 5.789-0.926 9.929 0 17.978 8.049 17.978 17.978 0 7.725-4.872 14.311-11.71 16.855-9.729 3.611-20.825 5.678-32.403 5.678-0.352 0-0.704-0.002-1.055-0.006-1.015 0.040-2.27 0.063-3.53 0.063-56.554 0-102.4-45.846-102.4-102.4s45.846-102.4 102.4-102.4c56.532 0 102.364 45.81 102.4 102.334 0.367 3.306 0.576 7.134 0.576 11.012s-0.209 7.706-0.617 11.475c-0.678 8.836-8.404 16.112-17.829 16.112-9.897 0-17.92-8.023-17.92-17.92 0-2.087 0.357-4.090 1.012-5.952 0.211-2.102 0.353-4.683 0.353-7.298s-0.142-5.197-0.419-7.738c-1.923-32.889-29.326-59.077-62.846-59.077-34.781 0-62.976 28.195-62.976 62.976 0 34.745 28.137 62.918 62.868 62.976zM927.744 318.976l-19.968 8.192-5.632 20.48c-1.538 8.464-8.852 14.798-17.646 14.798-9.897 0-17.92-8.023-17.92-17.92 0-2.379 0.463-4.649 1.305-6.726l5.589-19.336-131.072-118.272c-0.957 4.221-3.342 7.774-6.61 10.207-2.86 1.958-6.337 3.107-10.083 3.107-6.282 0-11.81-3.233-15.009-8.126-4.82-6.954-7.676-15.488-7.676-24.689 0-3.249 0.356-6.415 1.031-9.461 2.604-11.966 10.073-22.115 20.23-28.272 7.406-4.913 16.267-7.774 25.796-7.774s18.39 2.861 25.771 7.77c4.589 3.163 7.671 8.577 7.671 14.711 0 3.845-1.211 7.407-3.273 10.326-2.504 3.518-6.248 6.093-10.594 7.089l128.392 119.319 15.872-6.656h7.168c9.858 0.051 17.83 8.055 17.83 17.92 0 7.269-4.329 13.528-10.549 16.339zM536.064 123.904h-409.6v349.184c0 14.138-11.462 25.6-25.6 25.6s-25.6-11.462-25.6-25.6v-374.784c0-14.138 11.462-25.6 25.6-25.6h433.152c14.138 0 25.6 11.462 25.6 25.6s-11.462 25.6-25.6 25.6zM102.4 560.128h690.688v-142.336c0-14.138 11.462-25.6 25.6-25.6s25.6 11.462 25.6 25.6v167.936c0 14.138-11.462 25.6-25.6 25.6h-689.664v102.4h159.232v-48.128c0-14.138 11.462-25.6 25.6-25.6s25.6 11.462 25.6 25.6v46.080h329.728v-48.128c0-14.138 11.462-25.6 25.6-25.6s25.6 11.462 25.6 25.6v48.128h72.704v-51.2c0-14.138 11.462-25.6 25.6-25.6s25.6 11.462 25.6 25.6v76.8c0 14.138-11.462 25.6-25.6 25.6h-98.304v91.648c0 14.138-11.462 25.6-25.6 25.6h-125.44c-14.138 0-25.6-11.462-25.6-25.6v-91.648h-204.8v91.648c0 14.138-11.462 25.6-25.6 25.6h-124.928c-14.138 0-25.6-11.462-25.6-25.6v-91.648h-60.416c-14.138 0-25.6-11.462-25.6-25.6v-153.6c1.094-13.229 12.1-23.552 25.518-23.552 0.029 0 0.058 0 0.086 0zM593.92 828.928h74.24v-66.048h-73.216zM212.992 828.928h75.264v-66.048h-74.24zM215.552 433.664c14.138 0 25.6 11.462 25.6 25.6s-11.462 25.6-25.6 25.6v0c-14.138 0-25.6-11.462-25.6-25.6s11.462-25.6 25.6-25.6zM337.92 433.664c14.138 0 25.6 11.462 25.6 25.6s-11.462 25.6-25.6 25.6v0c-14.138 0-25.6-11.462-25.6-25.6s11.462-25.6 25.6-25.6zM460.8 433.664c14.138 0 25.6 11.462 25.6 25.6s-11.462 25.6-25.6 25.6v0c-14.138 0-25.6-11.462-25.6-25.6s11.462-25.6 25.6-25.6zM215.552 312.832v0c14.138 0 25.6 11.462 25.6 25.6s-11.462 25.6-25.6 25.6v0c-14.138 0-25.6-11.462-25.6-25.6s11.462-25.6 25.6-25.6zM337.92 312.832v0c14.138 0 25.6 11.462 25.6 25.6s-11.462 25.6-25.6 25.6v0c-14.138 0-25.6-11.462-25.6-25.6s11.462-25.6 25.6-25.6zM460.8 312.832v0c14.138 0 25.6 11.462 25.6 25.6s-11.462 25.6-25.6 25.6v0c-14.138 0-25.6-11.462-25.6-25.6s11.462-25.6 25.6-25.6zM216.064 192v0c14.138 0 25.6 11.462 25.6 25.6s-11.462 25.6-25.6 25.6v0c-14.138 0-25.6-11.462-25.6-25.6s11.462-25.6 25.6-25.6zM581.12 482.304c-14.138 0-25.6-11.462-25.6-25.6s11.462-25.6 25.6-25.6v0c14.138 0 25.6 11.462 25.6 25.6s-11.462 25.6-25.6 25.6zM702.464 482.304c-14.138 0-25.6-11.462-25.6-25.6s11.462-25.6 25.6-25.6v0c14.138 0 25.6 11.462 25.6 25.6s-11.462 25.6-25.6 25.6zM605.696 337.408c0 13.573-11.003 24.576-24.576 24.576v0c-14.138 0-25.6-11.462-25.6-25.6s11.462-25.6 25.6-25.6v0c0.025 0 0.055 0 0.085 0 13.573 0 24.576 11.003 24.576 24.576 0 0.721-0.031 1.435-0.092 2.14zM338.432 192v0c14.138 0 25.6 11.462 25.6 25.6s-11.462 25.6-25.6 25.6v0c-14.138 0-25.6-11.462-25.6-25.6s11.462-25.6 25.6-25.6zM460.8 192v0c14.138 0 25.6 11.462 25.6 25.6s-11.462 25.6-25.6 25.6v0c-14.138 0-25.6-11.462-25.6-25.6s11.462-25.6 25.6-25.6z" />
<glyph unicode="&#xe90e;" glyph-name="calendar" d="M849.408 604.16c14.138 0 25.6 11.462 25.6 25.6v74.24c0 14.138-11.462 25.6-25.6 25.6h-91.136v88.576c0 14.138-11.462 25.6-25.6 25.6h-118.272c-14.138 0-25.6-11.462-25.6-25.6v-89.088h-189.952v89.088c0 14.138-11.462 25.6-25.6 25.6h-117.248c-14.138 0-25.6-11.462-25.6-25.6v-89.088h-55.808c-14.138 0-25.6-11.462-25.6-25.6v-148.48c0-14.138 11.462-25.6 25.6-25.6h649.216v-425.984h-623.616v341.504c0 14.138-11.462 25.6-25.6 25.6s-25.6-11.462-25.6-25.6v-367.104c0-14.138 11.462-25.6 25.6-25.6h674.816c14.138 0 25.6 11.462 25.6 25.6v477.184c0 14.138-11.462 25.6-25.6 25.6h-649.216v97.28h147.456v-46.592c0-14.138 11.462-25.6 25.6-25.6s25.6 11.462 25.6 25.6v46.592h307.2v-46.592c0-14.138 11.462-25.6 25.6-25.6s25.6 11.462 25.6 25.6v46.592h65.536v-48.128c0-0.006 0-0.013 0-0.020 0-14.138 11.462-25.6 25.6-25.6 0.36 0 0.719 0.007 1.075 0.022zM280.576 729.088v63.488h67.072v-63.488zM638.976 729.088v63.488h67.072v-63.488zM257.024 454.144h46.080v-48.128h-46.080v48.128zM372.736 454.144h46.080v-48.128h-46.080v48.128zM487.424 454.144h46.080v-48.128h-46.080v48.128zM602.112 454.144h46.080v-48.128h-46.080v48.128zM716.8 454.144h46.080v-48.128h-46.080v48.128zM257.536 335.872h46.080v-48.128h-46.080v48.128zM372.736 335.872h46.080v-48.128h-46.080v48.128zM487.936 335.872h46.080v-48.128h-46.080v48.128zM602.624 335.872h46.080v-48.128h-46.080v48.128zM717.312 335.872h46.080v-48.128h-46.080v48.128zM258.048 217.6h46.080v-48.128h-46.080v48.128zM373.248 217.6h46.080v-48.128h-46.080v48.128zM487.936 217.6h46.080v-48.128h-46.080v48.128zM602.624 217.6h46.080v-48.128h-46.080v48.128zM717.312 217.6h46.080v-48.128h-46.080v48.128z" />
<glyph unicode="&#xe90f;" glyph-name="cart" d="M875.008 686.080c-4.72 6.246-12.134 10.24-20.48 10.24h-112.128c-14.138 0-25.6-11.462-25.6-25.6s11.462-25.6 25.6-25.6h76.8l-51.2-197.12c-146.944 0-346.624 0-409.6 0l-35.84 285.696h16.384c14.138 0 25.6 11.462 25.6 25.6s-11.462 25.6-25.6 25.6h-177.664c-14.138 0-25.6-11.462-25.6-25.6s11.462-25.6 25.6-25.6h109.568l51.2-406.528c1.586-12.755 12.359-22.529 25.415-22.529 0.065 0 0.13 0 0.195 0.001h366.582c14.138 0 25.6 11.462 25.6 25.6s-11.462 25.6-25.6 25.6h-345.088l-5.12 40.96h424.448c11.713 0.068 21.556 7.991 24.534 18.764l66.602 246.964c0.7 2.224 1.103 4.782 1.103 7.434 0 6.13-2.155 11.757-5.748 16.165zM417.28 268.8c-43.257-0.009-78.321-35.078-78.321-78.336 0-43.264 35.072-78.336 78.336-78.336s78.336 35.072 78.336 78.336c0 0.54-0.005 1.079-0.016 1.616-0.861 42.518-35.596 76.72-78.32 76.72-0.005 0-0.011 0-0.016 0zM417.28 163.328c-14.968 0.025-27.092 12.164-27.092 27.136 0 14.987 12.149 27.136 27.136 27.136 14.446 0 26.256-11.289 27.089-25.526 0.031-0.532 0.047-1.069 0.047-1.61 0-14.987-12.149-27.136-27.136-27.136-0.015 0-0.031 0-0.046 0zM660.992 268.8c-43.257-0.009-78.321-35.078-78.321-78.336 0-43.264 35.072-78.336 78.336-78.336s78.336 35.072 78.336 78.336c0 0.54-0.005 1.079-0.016 1.616-0.861 42.518-35.596 76.72-78.32 76.72-0.005 0-0.011 0-0.016 0zM660.992 163.328c-14.987 0-27.136 12.149-27.136 27.136s12.149 27.136 27.136 27.136c14.987 0 27.136-12.149 27.136-27.136s-12.149-27.136-27.136-27.136z" />
<glyph unicode="&#xe910;" glyph-name="cart-full" d="M879.104 685.568c-4.72 6.246-12.134 10.24-20.48 10.24h-112.128c-14.138 0-25.6-11.462-25.6-25.6s11.462-25.6 25.6-25.6h78.848l-51.2-195.584c-146.944 0-346.624 0-409.6 0l-38.4 284.16h16.896c14.138 0 25.6 11.462 25.6 25.6s-11.462 25.6-25.6 25.6h-177.664c-14.138 0-25.6-11.462-25.6-25.6s11.462-25.6 25.6-25.6h109.568l51.2-406.528c1.586-12.755 12.359-22.529 25.415-22.529 0.065 0 0.13 0 0.195 0.001h365.046c14.138 0 25.6 11.462 25.6 25.6s-11.462 25.6-25.6 25.6h-343.552l-5.12 41.472h424.448c11.713 0.068 21.556 7.991 24.534 18.764l66.602 246.964c0.63 2.115 0.993 4.545 0.993 7.059 0 6.068-2.111 11.643-5.639 16.030zM421.376 268.288c-43.252-0.015-78.309-35.082-78.309-78.336 0-43.264 35.072-78.336 78.336-78.336s78.336 35.072 78.336 78.336c0 0.72-0.010 1.438-0.029 2.154-1.141 42.268-35.763 76.182-78.307 76.182-0.009 0-0.019 0-0.028 0zM421.376 162.816c-14.953 0.044-27.059 12.176-27.059 27.136 0 14.987 12.149 27.136 27.136 27.136 14.266 0 25.961-11.009 27.053-24.994 0.055-0.707 0.083-1.421 0.083-2.142 0-14.987-12.149-27.136-27.136-27.136-0.027 0-0.054 0-0.082 0zM665.6 268.288c-0.144 0.001-0.315 0.002-0.485 0.002-43.264 0-78.336-35.072-78.336-78.336s35.072-78.336 78.336-78.336c43.264 0 78.336 35.072 78.336 78.336 0 0.72-0.010 1.437-0.029 2.152-1.135 42.099-35.486 75.912-77.796 76.182zM665.6 162.816c-14.987 0-27.136 12.149-27.136 27.136s12.149 27.136 27.136 27.136c14.987 0 27.136-12.149 27.136-27.136s-12.149-27.136-27.136-27.136zM415.232 589.824h142.848c14.138 0 25.6 11.462 25.6 25.6s-11.462 25.6-25.6 25.6h-142.848c-14.138 0-25.6-11.462-25.6-25.6s11.462-25.6 25.6-25.6zM391.68 519.168c0-14.138 11.462-25.6 25.6-25.6h289.28c14.138 0 25.6 11.462 25.6 25.6s-11.462 25.6-25.6 25.6h-289.28c-14.138 0-25.6-11.462-25.6-25.6z" />
<glyph unicode="&#xe911;" glyph-name="cart-plus" d="M478.208 574.976h51.2v-51.2c0-14.138 11.462-25.6 25.6-25.6s25.6 11.462 25.6 25.6v51.2h51.2c14.138 0 25.6 11.462 25.6 25.6s-11.462 25.6-25.6 25.6h-51.2v51.2c0 14.138-11.462 25.6-25.6 25.6s-25.6-11.462-25.6-25.6v-51.2h-51.2c-14.138 0-25.6-11.462-25.6-25.6s11.462-25.6 25.6-25.6zM879.104 685.568c-4.72 6.246-12.134 10.24-20.48 10.24h-112.128c-14.138 0-25.6-11.462-25.6-25.6s11.462-25.6 25.6-25.6h78.848l-51.2-195.584c-146.944 0-346.624 0-409.6 0l-38.4 284.16h16.896c14.138 0 25.6 11.462 25.6 25.6s-11.462 25.6-25.6 25.6h-177.664c-14.138 0-25.6-11.462-25.6-25.6s11.462-25.6 25.6-25.6h109.568l51.2-406.528c1.586-12.755 12.359-22.529 25.415-22.529 0.065 0 0.13 0 0.195 0.001h365.046c14.138 0 25.6 11.462 25.6 25.6s-11.462 25.6-25.6 25.6h-343.552l-5.12 41.472h424.448c11.713 0.068 21.556 7.991 24.534 18.764l66.602 246.964c0.63 2.115 0.993 4.545 0.993 7.059 0 6.068-2.111 11.643-5.639 16.030zM421.376 268.288c-43.252-0.015-78.309-35.082-78.309-78.336 0-43.264 35.072-78.336 78.336-78.336s78.336 35.072 78.336 78.336c0 0.72-0.010 1.438-0.029 2.154-1.141 42.268-35.763 76.182-78.307 76.182-0.009 0-0.019 0-0.028 0zM421.376 162.816c-14.953 0.044-27.059 12.176-27.059 27.136 0 14.987 12.149 27.136 27.136 27.136 14.266 0 25.961-11.009 27.053-24.994 0.055-0.707 0.083-1.421 0.083-2.142 0-14.987-12.149-27.136-27.136-27.136-0.027 0-0.054 0-0.082 0zM665.6 268.288c-0.144 0.001-0.315 0.002-0.485 0.002-43.264 0-78.336-35.072-78.336-78.336s35.072-78.336 78.336-78.336c43.264 0 78.336 35.072 78.336 78.336 0 0.72-0.010 1.437-0.029 2.152-1.135 42.099-35.486 75.912-77.796 76.182zM665.6 162.816c-14.987 0-27.136 12.149-27.136 27.136s12.149 27.136 27.136 27.136c14.987 0 27.136-12.149 27.136-27.136s-12.149-27.136-27.136-27.136z" />
<glyph unicode="&#xe912;" glyph-name="cart-receipt" d="M914.944 674.816c-4.72 6.246-12.134 10.24-20.48 10.24h-123.904c-14.138 0-25.6-11.462-25.6-25.6s11.462-25.6 25.6-25.6h90.624l-59.392-221.184c-164.352 0-389.12 0-457.728 0l-39.936 318.976h21.504c14.138 0 25.6 11.462 25.6 25.6s-11.462 25.6-25.6 25.6h-196.608c-14.138 0-25.6-11.462-25.6-25.6s11.462-25.6 25.6-25.6h123.392l54.784-450.56c1.586-12.755 12.359-22.529 25.415-22.529 0.065 0 0.13 0 0.195 0.001h404.982c14.138 0 25.6 11.462 25.6 25.6s-11.462 25.6-25.6 25.6h-379.392l-6.144 51.2h466.944c11.713 0.068 21.556 7.991 24.534 18.764l77.866 273.076c0.241 1.32 0.379 2.838 0.379 4.389 0 6.836-2.679 13.046-7.045 17.638zM412.16 213.504c-46.374 0-83.968-37.594-83.968-83.968s37.594-83.968 83.968-83.968c46.374 0 83.968 37.594 83.968 83.968s-37.594 83.968-83.968 83.968zM412.16 97.28c-18.097 0-32.768 14.671-32.768 32.768s14.671 32.768 32.768 32.768c18.097 0 32.768-14.671 32.768-32.768s-14.671-32.768-32.768-32.768zM680.96 213.504c-46.374 0-83.968-37.594-83.968-83.968s37.594-83.968 83.968-83.968c46.374 0 83.968 37.594 83.968 83.968s-37.594 83.968-83.968 83.968zM680.96 97.28c-18.097 0-32.768 14.671-32.768 32.768s14.671 32.768 32.768 32.768c18.097 0 32.768-14.671 32.768-32.768s-14.671-32.768-32.768-32.768zM414.72 579.072c14.138 0 25.6 11.462 25.6 25.6v194.048h233.984v-327.168c0-14.138 11.462-25.6 25.6-25.6s25.6 11.462 25.6 25.6v352.768c0 14.138-11.462 25.6-25.6 25.6h-285.184c-14.138 0-25.6-11.462-25.6-25.6v-219.648c0-14.138 11.462-25.6 25.6-25.6zM466.432 782.848h42.496c9.897 0 17.92-8.023 17.92-17.92v-58.88c0-9.897-8.023-17.92-17.92-17.92h-42.496c-9.897 0-17.92 8.023-17.92 17.92v58.88c0 9.897 8.023 17.92 17.92 17.92zM647.68 775.168h-88.064c-9.897 0-17.92-8.023-17.92-17.92s8.023-17.92 17.92-17.92h88.064c9.897 0 17.92 8.023 17.92 17.92s-8.023 17.92-17.92 17.92zM647.68 721.92h-88.064c-9.897 0-17.92-8.023-17.92-17.92s8.023-17.92 17.92-17.92h88.064c9.897 0 17.92 8.023 17.92 17.92s-8.023 17.92-17.92 17.92zM647.68 550.4h-88.064c-9.897 0-17.92-8.023-17.92-17.92s8.023-17.92 17.92-17.92h88.064c9.897 0 17.92 8.023 17.92 17.92s-8.023 17.92-17.92 17.92zM647.68 628.736h-181.248c-9.897 0-17.92-8.023-17.92-17.92s8.023-17.92 17.92-17.92h181.248c9.897 0 17.92 8.023 17.92 17.92s-8.023 17.92-17.92 17.92z" />
<glyph unicode="&#xe913;" glyph-name="cash-register" d="M806.4 766.976h-216.064c-14.138 0-25.6-11.462-25.6-25.6v-108.544c-22.596-5.219-42.241-11.901-60.956-20.287l-3.044 17.215 11.264 3.584-14.848 51.2-73.216-22.528 14.848-51.2 12.288 3.584 9.728-26.112c-12.867-8.027-23.893-15.957-34.375-24.526l-16.825 15.822 9.216 9.216-36.352 35.84-53.248-54.784 36.352-35.84 9.216 9.216 15.36-14.848c-9.529-11.448-18.648-24.153-26.837-37.491l-18.731 8.307 6.144 11.264-43.52 23.552-37.888-67.584 45.056-24.064 6.144 11.264 17.92-9.728c-17.229-38.273-27.38-82.941-27.648-129.95 0.001-19.631 1.677-38.771 4.892-57.384 1.748-10.216 12.187-19.421 24.794-19.514h4.106c12.208 2.096 21.381 12.602 21.381 25.25 0 1.571-0.142 3.109-0.413 4.602-2.513 13.811-4 29.924-4.072 46.371-0.003 0.482-0.004 0.976-0.004 1.469 0 137.049 99.9 250.764 230.852 272.298 13.589 2.248 22.606 12.557 22.606 24.971 0 0.298-0.005 0.594-0.015 0.889s0.001-0.043 0.001-0.043v102.4h164.864v-535.040h-541.184v161.28h36.864c14.138 0 25.6 11.462 25.6 25.6s-11.462 25.6-25.6 25.6h-62.464c-14.138 0-25.6-11.462-25.6-25.6v-212.992c0-14.138 11.462-25.6 25.6-25.6h593.408c14.138 0 25.6 11.462 25.6 25.6v587.264c0 14.138-11.462 25.6-25.6 25.6z" />
<glyph unicode="&#xe914;" glyph-name="chart" d="M744.96 426.496c-0.684 0.064-1.478 0.1-2.281 0.1-13.193 0-24.1-9.784-25.863-22.491-13.863-115.073-110.801-203.289-228.344-203.289-126.964 0-229.888 102.924-229.888 229.888 0 121.009 93.497 220.181 212.192 229.217 14.157 1.013 24.647 12.105 24.647 25.647 0 14.173-11.49 25.663-25.663 25.663-0.631 0-1.256-0.023-1.875-0.067-151.738-4.376-273.144-128.497-273.144-280.973 0-149.954 117.422-272.483 265.334-280.654 5.313-0.292 10.682-0.44 16.085-0.44s10.772 0.148 16.102 0.441c141.51 1.31 258.409 108.115 275.599 245.889 0.36 2.635 0.485 4.086 0.485 5.567 0 13.359-10.232 24.328-23.287 25.497zM553.984 748.544c-14.138 0-25.6-11.462-25.6-25.6v-237.056c0-14.138 11.462-25.6 25.6-25.6h237.056c14.138 0 25.6 11.462 25.6 25.6 0 145.061-117.595 262.656-262.656 262.656zM579.584 694.784c95.975-12.088 171.208-87.321 183.189-182.259l-183.189-1.037z" />
<glyph unicode="&#xe915;" glyph-name="check-square" d="M750.592 184.832h-477.184c-14.138 0-25.6 11.462-25.6 25.6v475.136c0 14.138 11.462 25.6 25.6 25.6h320.512c14.138 0 25.6-11.462 25.6-25.6s-11.462-25.6-25.6-25.6h-294.912v-423.424h425.472v384l-250.88-268.288c-4.53-4.134-10.584-6.665-17.229-6.665-0.243 0-0.485 0.003-0.727 0.010-7.13 0.238-13.579 3.118-18.409 7.691l-91.123 88.564c-4.652 4.652-7.529 11.078-7.529 18.176 0 14.196 11.508 25.705 25.705 25.705 7.098 0 13.524-2.877 18.176-7.529l72.192-72.192 276.992 297.984c4.7 5.158 11.446 8.382 18.945 8.382 14.138 0 25.6-11.462 25.6-25.6 0-0.067 0-0.134-0.001-0.2v-474.614c0.029-0.459 0.046-0.996 0.046-1.536 0-14.138-11.462-25.6-25.6-25.6-0.016 0-0.032 0-0.049 0z" />
<glyph unicode="&#xe916;" glyph-name="check" d="M453.12 251.904c-7.027 0.103-13.353 3.022-17.916 7.676l-153.604 153.604c-2.187 3.692-3.48 8.138-3.48 12.886 0 14.138 11.462 25.6 25.6 25.6 4.879 0 9.44-1.365 13.32-3.734l136.079-136.128 289.28 289.792c4.652 4.652 11.078 7.529 18.176 7.529 14.196 0 25.705-11.508 25.705-25.705 0-7.098-2.877-13.524-7.529-18.176l-307.2-307.2c-4.456-3.854-10.307-6.202-16.706-6.202-0.607 0-1.21 0.021-1.807 0.063z" />
<glyph unicode="&#xe917;" glyph-name="clipboard" d="M768 710.144h-95.744c2.404 3.615 3.906 8.014 4.094 12.752l0.002 42.544c0 14.138-11.462 25.6-25.6 25.6h-277.504c-14.138 0-25.6-11.462-25.6-25.6v-42.496c0.19-4.786 1.692-9.185 4.154-12.893l-95.802 0.093c-14.138 0-25.6-11.462-25.6-25.6v-553.984c0-14.138 11.462-25.6 25.6-25.6h512c14.138 0 25.6 11.462 25.6 25.6v553.984c0 14.138-11.462 25.6-25.6 25.6zM398.848 722.944v16.896h225.792v-16.896c0.19-4.786 1.692-9.185 4.154-12.893l-233.53 0.093c2.23 3.653 3.56 8.069 3.584 12.793zM742.4 156.16h-460.8v502.784h460.8zM471.552 520.192h194.048c14.138 0 25.6 11.462 25.6 25.6s-11.462 25.6-25.6 25.6h-194.048c-14.138 0-25.6-11.462-25.6-25.6s11.462-25.6 25.6-25.6zM471.552 396.8h194.048c14.138 0 25.6 11.462 25.6 25.6s-11.462 25.6-25.6 25.6h-194.048c-14.138 0-25.6-11.462-25.6-25.6s11.462-25.6 25.6-25.6zM471.552 250.88h194.048c14.138 0 25.6 11.462 25.6 25.6s-11.462 25.6-25.6 25.6h-194.048c-14.138 0-25.6-11.462-25.6-25.6s11.462-25.6 25.6-25.6zM355.84 294.4h35.84v-35.84h-35.84v35.84zM355.84 438.272h35.84v-35.84h-35.84v35.84zM355.84 563.712h35.84v-35.84h-35.84v35.84z" />
<glyph unicode="&#xe918;" glyph-name="clock" d="M535.552 106.496c-3.916 9.354-12.973 15.818-23.545 15.872-179.849 0-325.639 145.79-325.639 325.632s145.79 325.632 325.632 325.632c0.721 0.006 1.574 0.009 2.428 0.009 64.382 0 124.301-19.105 174.398-51.954 3.353-3.527 9.504-6.15 16.268-6.15 14.138 0 25.6 11.462 25.6 25.6 0 9.864-5.579 18.425-13.753 22.7-57.386 38.25-127.763 60.998-203.452 60.998-0.523 0-1.046-0.001-1.569-0.003-208.038 0-376.752-168.713-376.752-376.832s168.713-376.832 376.832-376.832c10.579 0.054 19.636 6.518 23.489 15.703 1.304 3.040 2.026 6.384 2.026 9.897s-0.722 6.856-2.025 9.891zM712.192 192c-5.722-4.822-9.332-11.993-9.332-20.007 0-6.21 2.167-11.913 5.787-16.395 4.503-5.596 11.411-9.179 19.156-9.179 0.272 0 0.543 0.004 0.813 0.013 0.134-0.006 0.337-0.008 0.541-0.008 5.851 0 11.204 2.134 15.323 5.666 5.841 4.704 9.567 11.895 9.567 19.956 0 6.013-2.073 11.541-5.543 15.91-4.875 5.742-12.162 9.395-20.302 9.395-6.039 0-11.609-2.011-16.076-5.4zM618.496 140.8v0c-9.9-3.509-16.863-12.792-16.863-23.702 0-3.069 0.551-6.010 1.56-8.728 3.445-9.974 12.877-17.149 23.997-17.234 1.319-0.228 2.825-0.358 4.362-0.358s3.044 0.13 4.509 0.38c9.774 3.65 16.725 13.037 16.725 24.048 0 3.12-0.558 6.11-1.58 8.875-2.717 10.581-12.333 18.401-23.775 18.401-3.215 0-6.286-0.617-9.101-1.74zM819.2 281.088c-3.906 2.538-8.683 4.046-13.813 4.046-8.983 0-16.886-4.627-21.455-11.628-2.392-3.93-3.772-8.563-3.772-13.518 0-9.139 4.695-17.182 11.805-21.847 3.764-2.631 8.316-4.168 13.228-4.168 0.244 0 0.488 0.004 0.731 0.011 8.928 0.113 16.789 4.726 21.408 11.679 2.631 3.97 4.162 8.728 4.162 13.844 0 9.135-4.883 17.13-12.181 21.517zM856.576 391.68c-1.751 0.427-3.761 0.672-5.829 0.672-12.015 0-22.097-8.277-24.854-19.441-0.533-2.040-0.818-4.181-0.818-6.388 0-11.956 8.363-21.958 19.558-24.476l6.312-0.032c0.845-0.098 1.824-0.154 2.816-0.154 14.224 0 25.754 11.531 25.754 25.754 0 13.232-9.978 24.133-22.82 25.589zM856.064 508.416c-13.058-1.277-23.18-12.199-23.18-25.485 0-0.942 0.051-1.872 0.15-2.788 1.082-12.833 11.859-22.927 24.994-22.927 0.029 0 0.059 0 0.088 0h2.555c13.058 1.277 23.18 12.199 23.18 25.485 0 0.942-0.051 1.872-0.15 2.788-1.29 12.923-12.201 23.018-25.471 23.018-0.763 0-1.518-0.033-2.264-0.099zM819.2 571.904c2.907-0.953 6.254-1.502 9.728-1.502s6.821 0.549 9.956 1.566c2.911 1.48 5.61 3.361 7.982 5.585 4.712 4.697 7.644 11.212 7.662 18.412 0.346 1.465 0.544 3.143 0.544 4.868s-0.198 3.402-0.573 5.013c-1.244 3.089-3.163 5.831-5.585 8.027-4.846 4.898-11.545 7.921-18.95 7.921-3.896 0-7.597-0.837-10.932-2.341-2.972-1.477-5.67-3.357-8.042-5.581-2.422-2.196-4.341-4.937-5.563-8.030-0.397-1.607-0.595-3.285-0.595-5.010s0.198-3.402 0.573-5.013c-0.031 0.041-0.032-0.087-0.032-0.215 0-7.093 2.943-13.498 7.675-18.061 1.813-2.128 3.83-3.983 6.051-5.571zM674.304 437.76h-157.696v157.696c0 14.138-11.462 25.6-25.6 25.6s-25.6-11.462-25.6-25.6v-183.296c0-14.138 11.462-25.6 25.6-25.6h183.296c14.138 0 25.6 11.462 25.6 25.6s-11.462 25.6-25.6 25.6z" />
<glyph unicode="&#xe919;" glyph-name="close-square" d="M759.808 709.12c-2.832 1.174-6.121 1.856-9.57 1.856-7.315 0-13.914-3.068-18.579-7.988l-209.419-224.267-64.512 65.024c-4.652 4.652-11.078 7.529-18.176 7.529-14.196 0-25.705-11.508-25.705-25.705 0-7.098 2.877-13.524 7.529-18.176l65.536-65.536-57.856-62.464c-4.996-4.684-8.108-11.324-8.108-18.692 0-14.138 11.462-25.6 25.6-25.6 8.006 0 15.153 3.675 19.848 9.43l57.381 60.974 61.44-59.904c4.652-4.652 11.078-7.529 18.176-7.529 14.196 0 25.705 11.508 25.705 25.705 0 7.098-2.877 13.524-7.529 18.176l-62.976 60.928 166.4 177.664v-384h-425.984v423.424h294.912c14.138 0 25.6 11.462 25.6 25.6s-11.462 25.6-25.6 25.6h-320.512c-14.138 0-25.6-11.462-25.6-25.6v-474.624c0-14.138 11.462-25.6 25.6-25.6h476.672c14.138 0 25.6 11.462 25.6 25.6v474.624c-0.054 10.579-6.518 19.636-15.703 23.489z" />
<glyph unicode="&#xe91a;" glyph-name="close" d="M681.472 252.928c-7.027 0.103-13.353 3.022-17.916 7.676l-339.46 340.996c-1.678 3.314-2.661 7.225-2.661 11.365 0 14.138 11.462 25.6 25.6 25.6 4.14 0 8.051-0.983 11.512-2.728l341.357-341.437c4.527-4.614 7.32-10.942 7.32-17.923 0-14.012-11.257-25.395-25.221-25.597zM342.528 252.928c-13.427 0.874-23.987 11.978-23.987 25.549 0 6.042 2.093 11.595 5.594 15.974l341.465 341.453c4.652 4.652 11.078 7.529 18.176 7.529 14.196 0 25.705-11.508 25.705-25.705 0-7.098-2.877-13.524-7.529-18.176l-343.552-339.456c-4.144-4.032-9.66-6.674-15.782-7.162z" />
<glyph unicode="&#xe91b;" glyph-name="clothes-hanger" d="M896.512 192h-768c-14.138 0-25.6 11.462-25.6 25.6v87.552c0.085 11.13 7.26 20.562 17.228 24.010l366.26 121.91v54.272c0 14.138 11.462 25.6 25.6 25.6 0.152-0.001 0.332-0.002 0.512-0.002 33.65 0 60.928 27.278 60.928 60.928s-27.278 60.928-60.928 60.928c-33.649 0-60.927-27.277-60.928-60.926 0-14.139-11.462-25.6-25.6-25.6s-25.6 11.462-25.6 25.6c0 0.068 0 0.149 0 0.229 0 61.927 50.201 112.128 112.128 112.128s112.128-50.201 112.128-112.128c0-53.030-36.814-97.462-86.279-109.134l-0.76-51.351c-0.085-11.13-7.26-20.562-17.228-24.010l-366.772-120.886v-43.52h716.8v45.568l-278.528 91.648c-11.020 3.494-18.866 13.63-18.866 25.6 0 14.802 12 26.802 26.802 26.802 2.833 0 5.563-0.439 8.126-1.254l296.258-97.74c10.208-3.522 17.41-13.047 17.41-24.255 0-0.113-0.001-0.226-0.002-0.339v-91.631c0-0.002 0-0.003 0-0.005 0-13.958-11.171-25.308-25.061-25.594z" />
<glyph unicode="&#xe91c;" glyph-name="coin-2" d="M520.704 195.072c14.138 0 25.6 11.462 25.6 25.6v29.696c13.381 1.986 25.449 5.931 36.507 11.573 33.831 18.058 56.917 53.789 56.917 94.912 0 2.526-0.087 5.032-0.259 7.515-7.124 52.762-43.53 95.841-92.193 112.527l-0.972 121.634c15.039-2.982 28.407-7.768 40.768-14.219 3.214-2.406 8.226-4.080 13.629-4.080 14.138 0 25.6 11.462 25.6 25.6 0 10.871-6.776 20.159-16.334 23.872-18.575 9.792-39.991 16.816-62.657 19.915l-1.005 25.713c0 14.138-11.462 25.6-25.6 25.6s-25.6-11.462-25.6-25.6v-26.112c-16.863-3.101-31.847-9.365-44.967-18.188-25.066-17.415-41.546-46.527-41.546-79.489 0-4.918 0.367-9.75 1.075-14.471 10.211-44.434 42.459-80.069 84.517-94.928l0.921-136.476c-18.042 5.971-33.684 14.505-47.431 25.337-4.152 3.689-10.064 6.092-16.538 6.092-14.138 0-25.6-11.462-25.6-25.6 0-8.775 4.415-16.519 11.146-21.132 22.184-17.811 48.646-31.124 77.562-38.174l1.374-31.003c-0.003-0.154-0.005-0.335-0.005-0.517 0-13.96 11.174-25.311 25.067-25.595zM588.8 359.936c0.021-0.568 0.033-1.236 0.033-1.906 0-21.397-12.153-39.955-29.932-49.149-3.638-1.561-7.578-2.797-11.658-3.654l-0.427 114.101c22.501-11.684 38.417-33.358 41.938-58.984zM460.8 545.28c-0.232 1.728-0.365 3.726-0.365 5.754 0 15.979 8.224 30.036 20.67 38.171 4.441 2.746 9.36 5.007 14.558 6.637l0.464-96.642c-17.703 9.504-30.632 25.954-35.235 45.609zM904.704 559.616c-24.971 86.957-75.758 159.808-143.424 211.772-5.439 4.646-11.352 7.049-17.825 7.049-14.138 0-25.6-11.462-25.6-25.6 0-8.775 4.415-16.519 11.146-21.132 84.815-66.247 138.774-168.428 138.774-283.212 0-162.153-107.686-299.155-255.446-343.393-19.183-5.377-39.017-9.166-59.35-11.274l-1.556 46.973c0 14.138-11.462 25.6-25.6 25.6s-25.6-11.462-25.6-25.6v-76.288c-0.101-0.845-0.159-1.824-0.159-2.816s0.058-1.971 0.17-2.933c-0.048-0.419-0.069-1.044-0.069-1.675s0.021-1.256 0.063-1.876c1.035-1.864 2.226-3.545 3.598-5.057l-0.019-2.539c1.635-1.564 3.485-2.925 5.496-4.028l0.136-0.068c1.462-0.303 3.143-0.476 4.864-0.476s3.402 0.173 5.025 0.503l-0.161-0.027c221.897 5.559 399.655 186.76 399.655 409.479 0 37.923-5.154 74.641-14.799 109.494zM348.672 130.048c-120.077 58.866-201.289 180.211-201.289 320.525 0 195.471 157.61 354.129 352.68 355.826l0.161-37.887c0-14.138 11.462-25.6 25.6-25.6s25.6 11.462 25.6 25.6v61.952c0.069 0.691 0.108 1.493 0.108 2.304s-0.039 1.613-0.116 2.404c0.088 0.667 0.134 1.558 0.134 2.46s-0.046 1.792-0.135 2.67c-0.777 1.453-1.628 2.795-2.594 4.043-0.743 1.505-1.594 2.847-2.56 4.096l-3.541 2.502-4.096 3.072h-9.728c-4.034 0.142-8.774 0.224-13.533 0.224-39.853 0-78.377-5.692-114.802-16.306-169.463-50.202-293.094-207.066-293.094-392.806 0-39.632 5.629-77.95 16.13-114.197 31.217-107.139 105.019-196.131 201.858-247.424 5.624-2.968 9.675-4.101 13.986-4.146 13.989 0.213 25.236 11.592 25.236 25.597 0 9.686-5.379 18.115-13.313 22.464z" />
<glyph unicode="&#xe91d;" glyph-name="coin-plus" d="M855.552 279.040h-51.2v51.2c0 14.138-11.462 25.6-25.6 25.6s-25.6-11.462-25.6-25.6v-51.2h-51.2c-14.138 0-25.6-11.462-25.6-25.6s11.462-25.6 25.6-25.6h51.2v-51.2c0-14.138 11.462-25.6 25.6-25.6s25.6 11.462 25.6 25.6v51.2h51.2c14.138 0 25.6 11.462 25.6 25.6s-11.462 25.6-25.6 25.6zM478.72 227.84c14.138 0 25.6 11.462 25.6 25.6v16.896c8.884 1.83 16.76 4.66 24.070 8.435 27.469 14.608 46.205 43.564 46.205 76.897 0 1.682-0.048 3.352-0.142 5.010-5.419 40.328-32.682 73.396-69.387 87.078l-0.747 80.116c7.903-2.354 14.691-5.139 21.13-8.501 3.395-2.492 8.407-4.166 13.81-4.166 14.138 0 25.6 11.462 25.6 25.6 0 10.871-6.776 20.159-16.334 23.872-12.908 6.793-27.681 11.957-43.272 14.768l-0.934 13.452c0 14.138-11.462 25.6-25.6 25.6s-25.6-11.462-25.6-25.6v-13.824c-11.687-2.927-21.945-7.688-31.023-14.024-20.374-14.218-33.734-37.887-33.734-64.676 0-3.844 0.275-7.625 0.807-11.322 7.704-33.737 31.726-60.971 63.249-73.069l0.701-89.836c-9.575 4.243-17.825 9.21-25.363 15.053-4.204 3.733-10.117 6.136-16.59 6.136-14.138 0-25.6-11.462-25.6-25.6 0-8.775 4.415-16.519 11.146-21.132 15.991-12.614 34.809-22.301 55.3-27.956l1.108-18.693c-0.003-0.152-0.005-0.332-0.005-0.512 0-14.138 11.462-25.6 25.6-25.6 0.002 0 0.004 0 0.005 0zM522.752 356.864c0.037-0.603 0.058-1.307 0.058-2.017 0-13.254-7.406-24.778-18.306-30.66l-0.185 64.421c9.972-7.48 16.799-18.686 18.409-31.515zM439.808 499.2c-0.141 1.048-0.221 2.259-0.221 3.489 0 9.637 4.93 18.122 12.406 23.071l0.103 0.064v-48.64c-6.283 5.61-10.694 13.199-12.253 21.782zM610.816 832c-2.148 0.625-4.616 0.985-7.168 0.985-14.682 0-26.585-11.902-26.585-26.585 0-12.13 8.125-22.363 19.229-25.554 147.326-51.548 254.678-180.643 273.909-337.007l-35.129-1.984c-14.962 186.792-169.315 332.958-358.212 334.847l-8.38 0.001c-197.584-5.181-355.778-166.586-355.778-364.938 0-195.65 153.914-355.352 347.266-364.63l6.976-0.032c91.473 0.049 175.058 33.781 239.033 89.463 5.059 4.348 8.521 11.31 8.521 19.081 0 14.139-11.462 25.601-25.601 25.601-6.369 0-12.194-2.326-16.674-6.174-53.853-47.72-125.162-76.879-203.282-76.879-2.862 0-5.716 0.039-8.559 0.117-165.932 8.699-297.52 145.704-297.52 313.443 0 170.441 135.861 309.151 305.195 313.739l6.056 0.009c168.512-2.827 304.372-138.687 307.196-306.932 0.291-14.185 11.64-25.356 25.598-25.356 0.002 0 0.004 0 0.005 0h87.040c0.002 0 0.003 0 0.005 0 14.138 0 25.6 11.462 25.6 25.6 0 0.18-0.002 0.36-0.006 0.539-9.626 190.985-134.188 350.581-305.516 411.644zM532.992 797.696c7.505 0.282 14.19 3.569 18.928 8.686 3.774 4.445 6.060 10.224 6.060 16.537 0 14.138-11.462 25.6-25.6 25.6-6.441 0-12.326-2.379-16.826-6.306l0.030 0.026c-4.347-4.505-7.025-10.645-7.025-17.411 0-13.856 11.232-25.088 25.088-25.088 0.13 0 0.259 0.001 0.388 0.003z" />
<glyph unicode="&#xe91e;" glyph-name="coin-remove" d="M877.056 305.664h-150.016c-14.138 0-25.6-11.462-25.6-25.6s11.462-25.6 25.6-25.6h150.016c14.138 0 25.6 11.462 25.6 25.6s-11.462 25.6-25.6 25.6zM478.72 227.84c14.138 0 25.6 11.462 25.6 25.6v16.896c8.884 1.83 16.76 4.66 24.070 8.435 27.469 14.608 46.205 43.564 46.205 76.897 0 1.682-0.048 3.352-0.142 5.010-5.419 40.328-32.682 73.396-69.387 87.078l-0.747 80.116c7.901-2.35 14.689-5.135 21.127-8.5 3.399-2.494 8.411-4.167 13.814-4.167 14.138 0 25.6 11.462 25.6 25.6 0 10.871-6.776 20.159-16.334 23.872-12.908 6.793-27.681 11.957-43.272 14.768l-0.934 13.452c0 14.138-11.462 25.6-25.6 25.6s-25.6-11.462-25.6-25.6v-13.824c-11.687-2.927-21.945-7.688-31.023-14.024-20.374-14.218-33.734-37.887-33.734-64.676 0-3.844 0.275-7.625 0.807-11.322 7.704-33.737 31.726-60.971 63.249-73.069l0.701-89.836c-9.575 4.243-17.825 9.21-25.363 15.053-4.204 3.733-10.117 6.136-16.59 6.136-14.138 0-25.6-11.462-25.6-25.6 0-8.775 4.415-16.519 11.146-21.132 15.991-12.614 34.809-22.301 55.3-27.956l1.108-18.693c-0.003-0.152-0.005-0.332-0.005-0.512 0-14.138 11.462-25.6 25.6-25.6 0.002 0 0.004 0 0.005 0zM522.752 356.864c0.037-0.603 0.058-1.307 0.058-2.017 0-13.254-7.406-24.778-18.306-30.66l-0.185 64.421c9.972-7.48 16.799-18.686 18.409-31.515zM439.808 499.2c-0.141 1.048-0.221 2.259-0.221 3.489 0 9.637 4.93 18.122 12.406 23.071l0.103 0.064v-48.64c-6.283 5.61-10.694 13.199-12.253 21.782zM610.816 832c-2.148 0.625-4.616 0.985-7.168 0.985-14.682 0-26.585-11.902-26.585-26.585 0-12.13 8.125-22.363 19.229-25.554 147.326-51.548 254.678-180.643 273.909-337.007l-35.129-1.984c-14.962 186.792-169.315 332.958-358.212 334.847l-8.38 0.001c-197.584-5.181-355.778-166.586-355.778-364.938 0-195.65 153.914-355.352 347.266-364.63l6.976-0.032c91.473 0.049 175.058 33.781 239.033 89.463 5.059 4.348 8.521 11.31 8.521 19.081 0 14.139-11.462 25.601-25.601 25.601-6.369 0-12.194-2.326-16.674-6.174-53.853-47.72-125.162-76.879-203.282-76.879-2.862 0-5.716 0.039-8.559 0.117-165.932 8.699-297.52 145.704-297.52 313.443 0 170.441 135.861 309.151 305.195 313.739l6.056 0.009c168.512-2.827 304.372-138.687 307.196-306.932 0.291-14.185 11.64-25.356 25.598-25.356 0.002 0 0.004 0 0.005 0h87.040c0.002 0 0.003 0 0.005 0 14.138 0 25.6 11.462 25.6 25.6 0 0.18-0.002 0.36-0.006 0.539-9.626 190.985-134.188 350.581-305.516 411.644zM532.992 797.696c7.505 0.282 14.19 3.569 18.928 8.686 3.774 4.445 6.060 10.224 6.060 16.537 0 14.138-11.462 25.6-25.6 25.6-6.441 0-12.326-2.379-16.826-6.306l0.030 0.026c-4.347-4.505-7.025-10.645-7.025-17.411 0-13.856 11.232-25.088 25.088-25.088 0.13 0 0.259 0.001 0.388 0.003z" />
<glyph unicode="&#xe91f;" glyph-name="coin-sync" d="M478.72 227.84c14.138 0 25.6 11.462 25.6 25.6v16.896c8.884 1.83 16.76 4.66 24.070 8.435 27.469 14.608 46.205 43.564 46.205 76.897 0 1.682-0.048 3.352-0.142 5.010-5.419 40.328-32.682 73.396-69.387 87.078l-0.747 80.116c7.903-2.354 14.691-5.139 21.13-8.501 3.395-2.492 8.407-4.166 13.81-4.166 14.138 0 25.6 11.462 25.6 25.6 0 10.871-6.776 20.159-16.334 23.872-12.908 6.793-27.681 11.957-43.272 14.768l-0.934 13.452c0 14.138-11.462 25.6-25.6 25.6s-25.6-11.462-25.6-25.6v-13.824c-11.687-2.927-21.945-7.688-31.023-14.024-20.374-14.218-33.734-37.887-33.734-64.676 0-3.844 0.275-7.625 0.807-11.322 7.704-33.737 31.726-60.971 63.249-73.069l0.701-89.836c-9.575 4.237-17.826 9.205-25.36 15.051-3.754 2.559-8.731 4.208-14.095 4.208-14.138 0-25.6-11.462-25.6-25.6 0-7.665 3.369-14.543 8.706-19.235 15.928-12.595 34.748-22.283 55.245-27.926l1.104-18.691c-0.003-0.152-0.005-0.332-0.005-0.512 0-14.138 11.462-25.6 25.6-25.6 0.002 0 0.004 0 0.005 0zM522.752 356.864c0.037-0.603 0.058-1.307 0.058-2.017 0-13.254-7.406-24.778-18.306-30.66l-0.185 64.421c9.972-7.48 16.799-18.686 18.409-31.515zM439.808 499.2c-0.117 0.956-0.184 2.063-0.184 3.185 0 9.835 5.135 18.471 12.871 23.372l0.113 0.067v-51.2c-6.931 6.18-11.622 14.742-12.782 24.39zM610.816 832c-2.148 0.625-4.616 0.985-7.168 0.985-14.682 0-26.585-11.902-26.585-26.585 0-12.13 8.125-22.363 19.229-25.554 147.326-51.548 254.678-180.643 273.909-337.007l-35.129-1.984c-14.962 186.792-169.315 332.958-358.212 334.847l-8.38 0.001c-197.584-5.181-355.778-166.586-355.778-364.938 0-195.65 153.914-355.352 347.266-364.63l6.976-0.032c91.473 0.049 175.058 33.781 239.033 89.463l-0.441-0.375c48.518 42.765 87.088 95.619 112.593 155.383 1.774 5.052 2.178 7.614 2.178 10.27 0 14.138-11.462 25.6-25.6 25.6-10.146 0-18.914-5.902-23.056-14.461-22.553-54.077-54.835-99.826-95.052-137.142l-0.247-0.226c-53.987-48.123-125.568-77.529-204.017-77.529-4.057 0-8.095 0.079-12.113 0.234-165.773 8.69-297.36 145.695-297.36 313.434 0 170.441 135.861 309.151 305.195 313.739l6.056 0.009c168.512-2.827 304.372-138.687 307.196-306.932 0.291-14.185 11.64-25.356 25.598-25.356 0.002 0 0.004 0 0.005 0h87.040c0.002 0 0.003 0 0.005 0 14.138 0 25.6 11.462 25.6 25.6 0 0.18-0.002 0.36-0.006 0.539-9.626 190.985-134.188 350.581-305.516 411.644zM532.992 797.696c7.505 0.282 14.19 3.569 18.928 8.686 3.774 4.445 6.060 10.224 6.060 16.537 0 14.138-11.462 25.6-25.6 25.6-6.441 0-12.326-2.379-16.826-6.306l0.030 0.026c-4.347-4.505-7.025-10.645-7.025-17.411 0-13.856 11.232-25.088 25.088-25.088 0.13 0 0.259 0.001 0.388 0.003z" />
<glyph unicode="&#xe920;" glyph-name="coin" d="M866.304 448c0.055 2.324 0.086 5.061 0.086 7.806 0 195.959-158.857 354.816-354.816 354.816s-354.816-158.857-354.816-354.816c0-161.842 108.357-298.377 256.482-341.013 4.577-1.199 6.958-1.534 9.417-1.534 14.645 0 26.517 11.872 26.517 26.517 0 12.186-8.22 22.452-19.418 25.556-128.503 37.229-220.724 153.688-220.724 291.686 0 167.4 135.704 303.104 303.104 303.104s303.104-135.704 303.104-303.104c0-3.171-0.049-6.331-0.145-9.478l0.011-306.739h-270.336v78.848h6.144c42.949 9.187 76.065 42.819 84.368 85.33 3.468 11.265 5.403 23.432 5.403 36.051 0 57.91-40.738 106.305-95.119 118.090l-0.796 135.313c16.749-1.247 32.102-6.223 45.555-14.094 4.048-3.931 10.149-6.508 16.853-6.508 14.138 0 25.6 11.462 25.6 25.6 0 9.403-5.069 17.621-12.624 22.072-21.68 13.776-47.619 22.523-75.474 24.11l-0.422 38.931c0 14.138-11.462 25.6-25.6 25.6s-25.6-11.462-25.6-25.6v-40.448c-13.538-1.748-25.81-4.98-37.39-9.58-31.536-12.114-55.35-40.694-60.842-75.372-0.803-5.534-1.22-11.286-1.22-17.135 0-59.259 42.84-108.513 99.24-118.48l0.725-153.706c-25.001 3.313-46.896 14.622-63.487 31.231-4.744 5.84-11.925 9.541-19.969 9.541-14.176 0-25.668-11.492-25.668-25.668 0-6.131 2.15-11.761 5.737-16.175 25.883-28.164 61.599-47.017 101.684-51.097l0.678-80.952c0.121-4.555 1.438-8.778 3.647-12.398-1.678-3.112-2.624-6.912-2.624-10.932 0-0.078 0-0.156 0.001-0.233 0-14.127 11.461-25.588 25.6-25.588h321.024c14.138 0 25.6 11.462 25.6 25.6zM584.704 318.976c-3.821-21.711-19.532-38.961-40.046-44.955l-0.402 133.019c26.989-9.46 45.997-34.715 45.997-64.41 0-9.266-1.851-18.1-5.203-26.152zM445.44 550.4c2.718 17.388 14.838 31.386 30.907 36.77 5.079 2.086 10.73 3.85 16.573 5.099l0.648-114.060c-32.768 13.312-54.784 31.744-48.128 72.192z" />
<glyph unicode="&#xe921;" glyph-name="contract" d="M686.592 617.984c-14.138 0-25.6-11.462-25.6-25.6v-439.808h-377.344v512h256c14.138 0 25.6 11.462 25.6 25.6s-11.462 25.6-25.6 25.6h-283.648c-14.138 0-25.6-11.462-25.6-25.6v-563.2c0-14.138 11.462-25.6 25.6-25.6h428.544c14.138 0 25.6 11.462 25.6 25.6v465.408c0 0.024 0 0.053 0 0.082 0 13.418-10.323 24.424-23.46 25.512zM420.864 564.736c0 14.138-11.462 25.6-25.6 25.6h-55.808c-14.138 0-25.6-11.462-25.6-25.6s11.462-25.6 25.6-25.6h55.808c14.138 0 25.6 11.462 25.6 25.6zM375.808 487.424h-36.352c-14.138 0-25.6-11.462-25.6-25.6s11.462-25.6 25.6-25.6h36.352c14.138 0 25.6 11.462 25.6 25.6s-11.462 25.6-25.6 25.6zM563.2 229.376c14.138 0 25.6 11.462 25.6 25.6s-11.462 25.6-25.6 25.6h-51.2c-14.138 0-25.6-11.462-25.6-25.6s11.462-25.6 25.6-25.6zM888.32 640.512l-153.6 147.456c-4.614 4.525-10.941 7.318-17.92 7.318s-13.306-2.793-17.924-7.322l-255.996-261.628c-4.436-4.597-7.168-10.862-7.168-17.766 0-0.054 0-0.108 0.001-0.162v-124.408h-96.256c-14.138 0-25.6-11.462-25.6-25.6s11.462-25.6 25.6-25.6h274.944c0.045 0 0.097 0 0.15 0 14.138 0 25.6 11.462 25.6 25.6 0 6.979-2.793 13.307-7.322 17.925l-76.796 80.892c-4.515 4.073-10.526 6.565-17.118 6.565-14.138 0-25.6-11.462-25.6-25.6 0-6.21 2.211-11.903 5.888-16.336l37.342-38.87h-69.632v116.224l229.888 233.984 117.248-112.128-89.088-96.256c-4.996-4.684-8.108-11.324-8.108-18.692 0-14.138 11.462-25.6 25.6-25.6 8.006 0 15.153 3.675 19.848 9.43l107.557 114.222c4.237 4.555 6.837 10.681 6.837 17.416 0 7.494-3.22 14.237-8.353 18.918z" />
<glyph unicode="&#xe922;" glyph-name="credit-card" d="M884.224 538.624c-4.64 4.677-11.070 7.572-18.176 7.572s-13.536-2.895-18.174-7.571l-338.946-338.946h-138.752l-51.2 51.2 384 384c1.845 2.247 3.542 4.761 4.994 7.428l68.222-67.844c5.113-6.28 12.844-10.259 21.504-10.259 15.28 0 27.667 12.387 27.667 27.667 0 6.62-2.325 12.697-6.203 17.458l-131.544 129.486c-4.567 4.658-10.893 7.577-17.901 7.68h-163.859c-0.367 0.021-0.797 0.033-1.23 0.033-6.829 0-12.964-2.971-17.183-7.691l-348.18-348.182c-4.677-4.64-7.572-11.070-7.572-18.176s2.895-13.536 7.571-18.174l202.242-200.194c4.597-4.436 10.862-7.168 17.766-7.168 0.054 0 0.108 0 0.162 0.001h159.736c7.027 0.103 13.353 3.022 17.916 7.676l346.628 346.628c5.147 4.699 8.363 11.438 8.363 18.928 0 7.243-3.008 13.784-7.843 18.441zM516.608 696.32h107.52l-372.736-374.272v-3.072l-57.344 54.784zM467.968 330.24l-43.52-43.52c-4.652-4.652-7.529-11.078-7.529-18.176 0-14.196 11.508-25.705 25.705-25.705 7.098 0 13.524 2.877 18.176 7.529l43.008 44.032c4.652 4.652 7.529 11.078 7.529 18.176 0 14.196-11.508 25.705-25.705 25.705-7.098 0-13.524-2.877-18.176-7.529z" />
<glyph unicode="&#xe923;" glyph-name="dashboard-data" d="M981.504 227.328c-5.805 30.192-17.619 56.904-34.201 79.957-4.131 6.971-12.292 11.957-21.618 11.957-14.138 0-25.6-11.462-25.6-25.6 0-6.374 2.329-12.203 6.183-16.684 17.517-24.211 28.036-54.543 28.036-87.331 0-72.491-51.416-132.972-119.77-146.966-9.305-1.839-18.891-2.797-28.7-2.797-31.373 0-60.457 9.797-84.36 26.5-39.133 27.086-64.753 72.272-64.753 123.443 0 72.415 51.31 132.847 119.557 146.922 9.246 1.828 18.76 2.778 28.497 2.778 20.372 0 39.772-4.16 57.398-11.677 1.878-0.608 5.143-1.169 8.539-1.169 15.237 0 27.839 11.281 29.91 25.947l0.019 335.52c0 14.138-11.462 25.6-25.6 25.6h-749.568c-14.138 0-25.6-11.462-25.6-25.6v-614.4c0-14.138 11.462-25.6 25.6-25.6h434.176c14.138 0 25.6 11.462 25.6 25.6s-11.462 25.6-25.6 25.6h-409.6v563.2h699.392v-276.992c-12.312 2.735-26.453 4.303-40.96 4.303s-28.648-1.567-42.263-4.541c-91.694-18.738-160.678-99.87-160.678-197.115 0-68.74 34.469-129.43 87.067-165.727 32.037-22.194 70.895-35.209 112.79-35.256 0.051 0 0.098 0 0.145 0 110.563 0 200.192 89.629 200.192 200.192 0 13.585-1.353 26.855-3.932 39.681zM425.472 376.32c0 14.138-11.462 25.6-25.6 25.6h-132.096c-14.138 0-25.6-11.462-25.6-25.6s11.462-25.6 25.6-25.6h132.096c14.138 0 25.6 11.462 25.6 25.6zM540.672 507.392c0 14.138-11.462 25.6-25.6 25.6h-247.296c-14.138 0-25.6-11.462-25.6-25.6s11.462-25.6 25.6-25.6h247.296c14.138 0 25.6 11.462 25.6 25.6zM267.776 281.6c-14.138 0-25.6-11.462-25.6-25.6s11.462-25.6 25.6-25.6h66.048c14.138 0 25.6 11.462 25.6 25.6s-11.462 25.6-25.6 25.6zM901.12 781.824h-303.616c-14.138 0-25.6-11.462-25.6-25.6s11.462-25.6 25.6-25.6h329.216c14.138 0 25.6 11.462 25.6 25.6v125.44c0 14.138-11.462 25.6-25.6 25.6h-862.208c-14.138 0-25.6-11.462-25.6-25.6s11.462-25.6 25.6-25.6h836.608zM830.464 802.304c8.483 0 15.36 6.877 15.36 15.36s-6.877 15.36-15.36 15.36h-45.056c-8.483 0-15.36-6.877-15.36-15.36s6.877-15.36 15.36-15.36zM887.296 148.992c-2.63 1.602-5.811 2.55-9.213 2.55-6.489 0-12.173-3.449-15.318-8.615-8.973-14.753-21.487-26.446-36.399-34.144-6.504-3.237-10.548-9.33-10.548-16.367 0-9.927 8.048-17.975 17.975-17.975 2.89 0 5.621 0.682 8.040 1.894 21.368 11.096 38.761 27.504 50.778 47.509 2.007 3.255 3.009 6.518 3.009 10.015 0 6.336-3.288 11.903-8.251 15.090zM844.8 300.544c-2.446 1.328-5.356 2.108-8.448 2.108-9.93 0-17.98-8.050-17.98-17.98 0-6.838 3.817-12.785 9.437-15.825 16.682-9.094 29.856-22.597 38.255-38.955 3.27-6.318 9.233-10.217 16.109-10.244 1.234-0.293 2.647-0.461 4.1-0.461s2.865 0.168 4.221 0.485c5.879 2.955 9.933 9.043 9.933 16.078 0 2.9-0.689 5.64-1.912 8.064-11.779 24.188-30.276 43.673-53.064 56.396zM687.616 219.136c6.981 0.129 12.974 4.23 15.825 10.133 8.58 17.205 21.777 30.896 37.975 39.805 6.187 3.325 10.004 9.272 10.004 16.11 0 9.93-8.050 17.98-17.98 17.98-3.092 0-6.002-0.781-8.543-2.155-22.294-12.988-39.908-32.084-50.78-55-1.501-3.082-2.19-5.821-2.19-8.722 0-7.035 4.054-13.123 9.953-16.056 1.728-0.998 3.618-1.711 5.63-2.079zM726.528 77.824c2.446-1.328 5.356-2.108 8.448-2.108 9.93 0 17.98 8.050 17.98 17.98 0 6.838-3.817 12.785-9.437 15.825-17.71 9.592-31.527 24.234-39.796 41.982-2.543 7.975-9.343 13.263-17.378 13.263-9.897 0-17.92-8.023-17.92-17.92 0-3.575 1.047-6.905 2.85-9.701 11.689-25.469 30.824-45.925 54.595-58.99zM699.904 189.44c0-12.442-10.086-22.528-22.528-22.528s-22.528 10.086-22.528 22.528c0 12.442 10.086 22.528 22.528 22.528s22.528-10.086 22.528-22.528zM915.968 189.44c0-12.442-10.086-22.528-22.528-22.528s-22.528 10.086-22.528 22.528c0 12.442 10.086 22.528 22.528 22.528s22.528-10.086 22.528-22.528zM807.424 81.92c0-12.442-10.086-22.528-22.528-22.528s-22.528 10.086-22.528 22.528c0 12.442 10.086 22.528 22.528 22.528s22.528-10.086 22.528-22.528zM807.424 297.472c0-12.442-10.086-22.528-22.528-22.528s-22.528 10.086-22.528 22.528c0 12.442 10.086 22.528 22.528 22.528s22.528-10.086 22.528-22.528zM807.936 189.44c0-12.442-10.086-22.528-22.528-22.528s-22.528 10.086-22.528 22.528c0 12.442 10.086 22.528 22.528 22.528s22.528-10.086 22.528-22.528z" />
<glyph unicode="&#xe924;" glyph-name="dashboard-money" d="M981.504 227.328c-5.951 30.226-17.935 56.933-34.701 79.931-4.327 4.922-11.284 8.379-19.049 8.379-14.138 0-25.6-11.462-25.6-25.6 0-4.813 1.328-9.315 3.638-13.161 17.41-23.986 27.889-54.152 27.889-86.765 0-82.286-66.706-148.992-148.992-148.992s-148.992 66.706-148.992 148.992c0 31.296 9.649 60.338 26.134 84.313 26.621 39.194 71.548 64.933 122.486 64.933 20.339 0 39.72-4.104 57.36-11.529 1.861-0.607 5.126-1.168 8.522-1.168 15.237 0 27.839 11.281 29.91 25.947l0.019 335.52c0 14.138-11.462 25.6-25.6 25.6h-749.056c-14.138 0-25.6-11.462-25.6-25.6v-614.4c0-14.138 11.462-25.6 25.6-25.6h434.176c14.138 0 25.6 11.462 25.6 25.6s-11.462 25.6-25.6 25.6h-409.6v563.2h699.392v-276.992c-13.484 3.264-28.965 5.137-44.883 5.137-68.484 0-128.874-34.654-164.591-87.382-22.739-32.578-36.067-72.156-36.067-114.847 0-110.846 89.858-200.704 200.704-200.704s200.704 89.858 200.704 200.704c0 13.759-1.384 27.194-4.022 40.174zM425.472 376.32c0 14.138-11.462 25.6-25.6 25.6h-132.096c-14.138 0-25.6-11.462-25.6-25.6s11.462-25.6 25.6-25.6h132.096c14.138 0 25.6 11.462 25.6 25.6zM540.672 507.392c0 14.138-11.462 25.6-25.6 25.6h-247.296c-14.138 0-25.6-11.462-25.6-25.6s11.462-25.6 25.6-25.6h247.296c14.138 0 25.6 11.462 25.6 25.6zM267.776 281.6c-14.138 0-25.6-11.462-25.6-25.6s11.462-25.6 25.6-25.6h66.048c14.138 0 25.6 11.462 25.6 25.6s-11.462 25.6-25.6 25.6zM789.504 63.488c9.897 0 17.92 8.023 17.92 17.92v8.192c5.251 1.273 9.857 3.029 14.163 5.281 17.774 9.583 29.878 28.405 29.878 50.053 0 0.347-0.003 0.692-0.009 1.037-3.349 26.066-20.643 47.456-44.066 56.616l-0.477 47.78 10.752-4.608c2.446-1.328 5.356-2.108 8.448-2.108 9.93 0 17.98 8.050 17.98 17.98 0 6.838-3.817 12.785-9.437 15.825-7.923 4.271-16.996 7.631-26.562 9.657l-0.669 7.287c0 9.897-8.023 17.92-17.92 17.92s-17.92-8.023-17.92-17.92v-7.68c-7.21-1.942-13.522-4.927-19.144-8.836-13.597-9.185-22.549-24.765-22.549-42.436 0-3.050 0.267-6.037 0.778-8.94 4.895-21.812 20.239-39.521 40.464-47.66l0.451-53.92c-5.082 2.497-9.446 5.223-13.502 8.332-2.978 2.741-7.207 4.504-11.847 4.504-9.897 0-17.92-8.023-17.92-17.92 0-6.176 3.124-11.621 7.877-14.844 10.078-7.74 21.87-13.721 34.671-17.278l0.72-11.435c2.272-7.472 9.101-12.815 17.178-12.815 0.261 0 0.521 0.006 0.779 0.017zM816.128 147.456c0.003-0.121 0.004-0.263 0.004-0.406 0-6.822-3.421-12.845-8.641-16.447l-0.067 34.26c4.843-4.373 8.063-10.463 8.696-17.303zM764.928 237.056c-0.065 0.532-0.103 1.148-0.103 1.772 0 4.59 2.014 8.71 5.206 11.525l0.017-23.026c-1.299 2.651-2.058 5.77-2.058 9.066 0 0.233 0.004 0.465 0.011 0.696zM901.12 781.824h-303.616c-14.138 0-25.6-11.462-25.6-25.6s11.462-25.6 25.6-25.6h329.216c14.138 0 25.6 11.462 25.6 25.6v125.44c0 14.138-11.462 25.6-25.6 25.6h-862.208c-14.138 0-25.6-11.462-25.6-25.6s11.462-25.6 25.6-25.6h836.608zM830.464 802.304c8.483 0 15.36 6.877 15.36 15.36s-6.877 15.36-15.36 15.36h-45.056c-8.483 0-15.36-6.877-15.36-15.36s6.877-15.36 15.36-15.36z" />
<glyph unicode="&#xe925;" glyph-name="dashboard-pharmacy" d="M981.504 227.328c-5.805 30.192-17.619 56.904-34.201 79.957-4.131 6.971-12.292 11.957-21.618 11.957-14.138 0-25.6-11.462-25.6-25.6 0-6.374 2.329-12.203 6.183-16.684 17.517-24.211 28.036-54.543 28.036-87.331 0-72.491-51.416-132.972-119.77-146.966-9.305-1.839-18.891-2.797-28.7-2.797-31.373 0-60.457 9.797-84.36 26.5-39.133 27.086-64.753 72.272-64.753 123.443 0 72.415 51.31 132.847 119.557 146.922 9.262 1.84 18.795 2.798 28.552 2.798 20.355 0 39.736-4.168 57.337-11.696 1.883-0.609 5.148-1.169 8.544-1.169 15.237 0 27.839 11.281 29.91 25.947l0.019 335.52c0 14.138-11.462 25.6-25.6 25.6h-749.568c-14.138 0-25.6-11.462-25.6-25.6v-614.4c0-14.138 11.462-25.6 25.6-25.6h434.176c14.138 0 25.6 11.462 25.6 25.6s-11.462 25.6-25.6 25.6h-409.6v563.2h699.392v-276.992c-12.312 2.735-26.453 4.303-40.96 4.303s-28.648-1.567-42.263-4.541c-91.694-18.738-160.678-99.87-160.678-197.115 0-68.74 34.469-129.43 87.067-165.727 32.037-22.194 70.895-35.209 112.79-35.256 0.051 0 0.098 0 0.145 0 110.563 0 200.192 89.629 200.192 200.192 0 13.585-1.353 26.855-3.932 39.681zM425.472 376.32c0 14.138-11.462 25.6-25.6 25.6h-132.096c-14.138 0-25.6-11.462-25.6-25.6s11.462-25.6 25.6-25.6h132.096c14.138 0 25.6 11.462 25.6 25.6zM540.672 507.392c0 14.138-11.462 25.6-25.6 25.6h-247.296c-14.138 0-25.6-11.462-25.6-25.6s11.462-25.6 25.6-25.6h247.296c14.138 0 25.6 11.462 25.6 25.6zM267.776 281.6c-14.138 0-25.6-11.462-25.6-25.6s11.462-25.6 25.6-25.6h66.048c14.138 0 25.6 11.462 25.6 25.6s-11.462 25.6-25.6 25.6zM901.12 781.824h-303.616c-14.138 0-25.6-11.462-25.6-25.6s11.462-25.6 25.6-25.6h329.216c14.138 0 25.6 11.462 25.6 25.6v125.44c0 14.138-11.462 25.6-25.6 25.6h-862.208c-14.138 0-25.6-11.462-25.6-25.6s11.462-25.6 25.6-25.6h836.608zM830.464 802.304c8.483 0 15.36 6.877 15.36 15.36s-6.877 15.36-15.36 15.36h-45.056c-8.483 0-15.36-6.877-15.36-15.36s6.877-15.36 15.36-15.36zM737.28 261.12c-39.446 0-71.424-31.978-71.424-71.424s31.978-71.424 71.424-71.424h95.744c39.446 0 71.424 31.978 71.424 71.424s-31.978 71.424-71.424 71.424zM762.368 164.864h-25.088c-14.138 0-25.6 11.462-25.6 25.6s11.462 25.6 25.6 25.6h25.088zM858.112 192c0-13.856-11.232-25.088-25.088-25.088h-25.088v51.2h25.088c0.006 0 0.014 0 0.021 0 13.856 0 25.088-11.232 25.088-25.088 0-0.36-0.008-0.719-0.023-1.075z" />
<glyph unicode="&#xe926;" glyph-name="dashboard" d="M845.312 766.976h-665.6c-14.138 0-25.6-11.462-25.6-25.6s11.462-25.6 25.6-25.6h639.488v-54.272h-603.648c-14.138 0-25.6-11.462-25.6-25.6v-480.768c0-14.138 11.462-25.6 25.6-25.6h619.52c14.138 0 25.6 11.462 25.6 25.6v389.12c0 14.138-11.462 25.6-25.6 25.6h-47.104c-14.138 0-25.6-11.462-25.6-25.6s11.462-25.6 25.6-25.6h21.504v-338.432h-568.32v430.080h604.16c14.138 0 25.6 11.462 25.6 25.6v105.472c0 14.138-11.462 25.6-25.6 25.6zM288.256 364.544c-0.002-0.304-0.004-0.664-0.004-1.024 0-74.934 60.746-135.68 135.68-135.68s135.68 60.746 135.68 135.68c0 74.933-60.744 135.678-135.676 135.68-0.001 0-0.003 0-0.004 0-74.574 0-135.096-60.164-135.676-134.601zM423.936 268.288c-0.748-0.021-1.628-0.033-2.511-0.033-53.161 0-96.256 43.095-96.256 96.256 0 47.172 33.932 86.418 78.72 94.662l0.591-94.63c0-10.745 8.711-19.456 19.456-19.456h95.232c-9.768-44.215-48.628-76.8-95.1-76.8-0.046 0-0.093 0-0.139 0zM519.168 384h-76.288v75.264c38.267-7.767 68.008-37.165 76.171-74.622zM619.52 236.032h118.784c9.308 1.567 16.31 9.566 16.31 19.2s-7.003 17.633-16.196 19.184l-118.898 0.016c-9.308-1.567-16.31-9.566-16.31-19.2s7.003-17.633 16.196-19.184zM737.792 372.736h-85.504c-9.308-1.567-16.31-9.566-16.31-19.2s7.003-17.633 16.196-19.184l85.618-0.016c9.308 1.567 16.31 9.566 16.31 19.2s-7.003 17.633-16.196 19.184zM672.768 426.496h57.856c0.946-0.163 2.035-0.256 3.146-0.256 10.745 0 19.456 8.711 19.456 19.456s-8.711 19.456-19.456 19.456c-1.111 0-2.2-0.093-3.26-0.272l-57.742 0.016c-9.308-1.567-16.31-9.566-16.31-19.2s7.003-17.633 16.196-19.184zM678.4 519.68h38.4c1.041-0.163 2.241-0.256 3.463-0.256 13.007 0 23.552 10.545 23.552 23.552s-10.545 23.552-23.552 23.552c-1.222 0-2.422-0.093-3.594-0.273l-40.317 0.017c-1.041 0.163-2.241 0.256-3.463 0.256-13.007 0-23.552-10.545-23.552-23.552s10.545-23.552 23.552-23.552c1.222 0 2.422 0.093 3.594 0.273zM624.128 521.216c3.022 1.159 5.589 2.903 7.671 5.11 4.355 4.145 7.085 9.942 7.177 16.377 0 0.055 0.001 0.1 0.001 0.145 0 6.43-2.756 12.216-7.152 16.241-1.983 2.396-4.595 4.18-7.584 5.105-2.742 1.265-5.823 1.986-9.072 1.986s-6.33-0.721-9.092-2.011c-2.748-1.036-5.164-2.793-7.013-5.036-4.435-4.069-7.191-9.855-7.191-16.285 0-0.045 0-0.090 0-0.135 0.092-6.445 2.823-12.243 7.158-16.368 3.889-4.068 9.327-6.608 15.359-6.665 0.366-0.019 0.782-0.030 1.201-0.030 3.069 0 6.003 0.574 8.702 1.621z" />
<glyph unicode="&#xe927;" glyph-name="data-retransmission" d="M719.36 146.944c-57.507-40.337-128.948-64.46-206.024-64.46-187.176 0-341.124 142.266-359.611 324.565l51.075 1.526c14.138 0 25.6 11.462 25.6 25.6s-11.462 25.6-25.6 25.6h-88.576l-4.096-3.072-3.584-2.56c-0.92-1.191-1.77-2.533-2.493-3.951-0.122-0.759-0.153-1.472-0.153-2.193s0.031-1.435 0.092-2.14c-0.105-0.753-0.162-1.732-0.162-2.724s0.056-1.971 0.166-2.934c-0.067-0.496-0.098-1.209-0.098-1.93s0.032-1.434 0.094-2.139l-3.59 0.091c8.401-222.701 190.967-400.052 414.954-400.052 86.86 0 167.49 26.67 234.149 72.267 5.43 3.751 9.872 11.521 9.872 20.328 0 14.156-11.476 25.632-25.632 25.632-5.349 0-10.315-1.639-14.425-4.441zM157.184 601.6c3.346-1.717 7.3-2.723 11.49-2.723 9.901 0 18.489 5.62 22.747 13.844 61.719 118.686 183.612 198.255 324.089 198.255 165.104 0 304.537-109.914 349.117-260.561 8.117-28.799 12.744-59.028 13.446-90.226l-39.417-0.413c-14.138 0-25.6-11.462-25.6-25.6s11.462-25.6 25.6-25.6h66.048c1.462-0.297 3.143-0.466 4.864-0.466s3.402 0.17 5.027 0.493l3.421-0.027 4.608 3.072v3.072c1.141 1.345 2.162 2.856 3.008 4.473 0.104 0.672 0.127 1.297 0.127 1.927s-0.023 1.256-0.068 1.875c0.108 0.762 0.167 1.741 0.167 2.733s-0.059 1.971-0.173 2.932 0.011-0.116 0.011-0.116v0c0.154 4.221 0.241 9.18 0.241 14.159 0 229.326-185.906 415.232-415.232 415.232-159.687 0-298.32-90.141-367.792-222.316-1.859-4.602-2.303-7.281-2.303-10.063 0-10.895 6.806-20.2 16.398-23.897zM943.104 269.312h-72.704v70.144c0 14.138-11.462 25.6-25.6 25.6s-25.6-11.462-25.6-25.6v-70.144h-68.096c-14.138 0-25.6-11.462-25.6-25.6s11.462-25.6 25.6-25.6h68.096v-70.144c0-14.138 11.462-25.6 25.6-25.6s25.6 11.462 25.6 25.6v70.144h70.144c14.138 0 25.6 11.462 25.6 25.6s-11.462 25.6-25.6 25.6zM650.752 540.672l-111.616 112.128c-4.695 4.556-11.107 7.364-18.176 7.364s-13.481-2.809-18.183-7.371l-111.609-112.122c-4.652-4.652-7.529-11.078-7.529-18.176 0-14.196 11.508-25.705 25.705-25.705 7.098 0 13.524 2.877 18.176 7.529l93.696 93.696 93.184-93.184c4.652-4.652 11.078-7.529 18.176-7.529 14.196 0 25.705 11.508 25.705 25.705 0 7.098-2.877 13.524-7.529 18.176zM614.4 391.168l-93.696-93.696-93.184 93.696c-4.652 4.652-11.078 7.529-18.176 7.529-14.196 0-25.705-11.508-25.705-25.705 0-7.098 2.877-13.524 7.529-18.176l111.616-111.616c4.64-4.677 11.070-7.572 18.176-7.572s13.536 2.895 18.174 7.571l111.618 111.618c4.652 4.652 7.529 11.078 7.529 18.176 0 14.196-11.508 25.705-25.705 25.705-7.098 0-13.524-2.877-18.176-7.529z" />
<glyph unicode="&#xe928;" glyph-name="data-transmission" d="M318.464 116.736c-118.34 61.716-197.745 183.501-197.745 323.833 0 165.344 110.234 304.942 261.218 349.311 28.791 8.091 59.018 12.716 90.21 13.441l0.428-39.416c0-14.138 11.462-25.6 25.6-25.6s25.6 11.462 25.6 25.6v66.048c0.054 0.613 0.085 1.327 0.085 2.048s-0.031 1.435-0.092 2.14c0.105 0.753 0.162 1.732 0.162 2.724s-0.056 1.971-0.166 2.934l0.011 3.466c-0.92 1.752-1.94 3.262-3.104 4.647l-8.672 2.521-4.608 3.072h-9.728c-3.605 0.11-7.846 0.173-12.102 0.173-41.090 0-80.811-5.86-118.374-16.79-171.956-50.741-297.491-209.868-297.491-398.316 0-159.731 90.191-298.397 222.426-367.85 5.623-2.807 9.577-3.813 13.767-3.813 9.901 0 18.489 5.62 22.747 13.844 2.332 3.885 3.672 8.407 3.672 13.241 0 9.844-5.557 18.391-13.705 22.674zM911.872 569.344c-32.68 112.2-108.16 202.87-207.125 254.906-5.703 2.898-9.757 3.957-14.059 3.957-14.165 0-25.647-11.483-25.647-25.647 0-9.863 5.567-18.426 13.731-22.717 119.14-61.575 199.079-183.708 199.079-324.51 0-165.219-110.067-304.731-260.876-349.21-28.786-8.073-59.010-12.697-90.196-13.443l-0.443 39.416c0 14.138-11.462 25.6-25.6 25.6s-25.6-11.462-25.6-25.6v-66.048c-0.054-0.613-0.085-1.327-0.085-2.048s0.031-1.435 0.092-2.14c-0.105-0.753-0.162-1.732-0.162-2.724s0.056-1.971 0.166-2.934l-0.011-3.466c0.92-1.752 1.94-3.262 3.104-4.647l3.552-2.521 4.608-3.072h25.6c229.321 0.007 415.22 185.91 415.22 415.232 0 40.48-5.793 79.608-16.594 116.599zM480.256 652.8l-111.616-112.128c-4.652-4.652-7.529-11.078-7.529-18.176 0-14.196 11.508-25.705 25.705-25.705 7.098 0 13.524 2.877 18.176 7.529l93.696 94.208 93.696-93.696c4.652-4.652 11.078-7.529 18.176-7.529 14.196 0 25.705 11.508 25.705 25.705 0 7.098-2.877 13.524-7.529 18.176l-112.128 111.616c-4.695 4.556-11.107 7.364-18.176 7.364s-13.481-2.809-18.183-7.371zM498.688 236.032c7.027 0.103 13.353 3.022 17.916 7.676l111.62 111.62c4.652 4.652 7.529 11.078 7.529 18.176 0 14.196-11.508 25.705-25.705 25.705-7.098 0-13.524-2.877-18.176-7.529l-93.184-94.208-93.696 93.696c-4.652 4.652-11.078 7.529-18.176 7.529-14.196 0-25.705-11.508-25.705-25.705 0-7.098 2.877-13.524 7.529-18.176l111.616-111.616c4.598-4.44 10.867-7.176 17.774-7.176 0.231 0 0.462 0.003 0.691 0.009z" />
<glyph unicode="&#xe929;" glyph-name="data" d="M811.52 724.992h-73.216v30.208c0 14.138-11.462 25.6-25.6 25.6h-500.224c-14.138 0-25.6-11.462-25.6-25.6v-607.744c0-14.138 11.462-25.6 25.6-25.6h482.304c4.362-3.803 10.1-6.127 16.381-6.144h102.403c14.138 0 25.6 11.462 25.6 25.6v558.080c0 0.024 0 0.053 0 0.082 0 14.138-11.462 25.6-25.6 25.6-0.721 0-1.435-0.030-2.141-0.088zM238.080 538.112h449.024v-157.184h-449.024zM738.304 355.328v113.664h48.128v-134.144h-48.128zM786.432 673.792v-153.6h-48.128v153.6zM687.104 729.6v-140.288h-449.024v140.288zM238.080 330.24h449.024v-157.184h-449.024zM785.92 166.912h-48.128v116.736h48.128zM307.2 642.048h286.72c14.138 0 25.6 11.462 25.6 25.6s-11.462 25.6-25.6 25.6h-286.72c-14.138 0-25.6-11.462-25.6-25.6s11.462-25.6 25.6-25.6zM496.64 484.864h-171.008c-14.138 0-25.6-11.462-25.6-25.6s11.462-25.6 25.6-25.6h171.008c14.138 0 25.6 11.462 25.6 25.6s-11.462 25.6-25.6 25.6zM394.24 276.992h-68.608c-14.138 0-25.6-11.462-25.6-25.6s11.462-25.6 25.6-25.6h68.608c14.138 0 25.6 11.462 25.6 25.6s-11.462 25.6-25.6 25.6z" />
<glyph unicode="&#xe92a;" glyph-name="desktop" d="M572.928 120.832c-14.138 0-25.6 11.462-25.6 25.6v107.52c0 14.138 11.462 25.6 25.6 25.6h310.272v444.416h-741.888v-443.904h287.744c14.138 0 25.6-11.462 25.6-25.6v-107.52c0-14.138-11.462-25.6-25.6-25.6h-150.016c-14.138 0-25.6 11.462-25.6 25.6s11.462 25.6 25.6 25.6h124.416v56.32h-287.744c-14.138 0-25.6 11.462-25.6 25.6v495.104c0 14.138 11.462 25.6 25.6 25.6h792.576c14.138 0 25.6-11.462 25.6-25.6v-495.104c0-14.138-11.462-25.6-25.6-25.6h-309.76v-81.92c0.003-0.152 0.005-0.332 0.005-0.512 0-14.138-11.462-25.6-25.6-25.6-0.002 0-0.004 0-0.005 0z" />
<glyph unicode="&#xe92b;" glyph-name="document" d="M762.368 712.704c0 14.138-11.462 25.6-25.6 25.6h-289.792v5.632c0.331 1.307 0.521 2.807 0.521 4.352s-0.19 3.045-0.548 4.479c-4.197 25.498-25.079 45.157-50.955 47.473-0.84 0.039-1.57 0.053-2.304 0.053-32.236 0-58.368-26.132-58.368-58.368 0-0.733 0.014-1.463 0.040-2.19l-0.003-27.031c-0.25-1.154-0.393-2.48-0.393-3.84s0.143-2.686 0.415-3.964c3.060-10.013 12.126-17.344 22.968-17.794l51.25-0.002v-58.368c0-17.92-22.016-17.92-22.016 0v6.656c-1.567 9.308-9.566 16.31-19.2 16.31s-17.633-7.003-19.184-16.196l-0.016-6.77c-0.059-0.918-0.092-1.991-0.092-3.072 0-28.277 22.923-51.2 51.2-51.2 0.032 0 0.065 0 0.097 0 0.022 0 0.055 0 0.087 0 28.277 0 51.2 22.923 51.2 51.2 0 1.081-0.033 2.154-0.099 3.218l0.007 58.222h263.68v-428.032h-100.864c-14.138 0-25.6-11.462-25.6-25.6v-92.672h-275.968v521.216c0 14.138-11.462 25.6-25.6 25.6s-25.6-11.462-25.6-25.6v-547.328c0-14.138 11.462-25.6 25.6-25.6h329.216c14.138 0 25.6 11.462 25.6 25.6v93.184h94.72c14.138 0 25.6 11.462 25.6 25.6v479.232zM373.76 738.304v0c-0.080 0.678-0.125 1.464-0.125 2.261 0 10.271 7.561 18.776 17.421 20.253 10.512-1.057 18.554-9.772 18.554-20.364 0-0.216-0.003-0.431-0.010-0.645l0.001 0.031zM374.784 478.208h274.432c14.138 0 25.6 11.462 25.6 25.6s-11.462 25.6-25.6 25.6h-274.432c-14.138 0-25.6-11.462-25.6-25.6s11.462-25.6 25.6-25.6zM374.784 370.176h274.432c14.138 0 25.6 11.462 25.6 25.6s-11.462 25.6-25.6 25.6h-274.432c-14.138 0-25.6-11.462-25.6-25.6s11.462-25.6 25.6-25.6z" />
<glyph unicode="&#xe92c;" glyph-name="dollar" d="M662.528 473.6h-274.944v159.744h274.432c14.138 0 25.6 11.462 25.6 25.6s-11.462 25.6-25.6 25.6h-123.904v99.328c0 14.138-11.462 25.6-25.6 25.6s-25.6-11.462-25.6-25.6v-99.328h-124.928c-14.138 0-25.6-11.462-25.6-25.6v-210.944c0-14.138 11.462-25.6 25.6-25.6h274.944v-160.256h-275.456c-14.138 0-25.6-11.462-25.6-25.6s11.462-25.6 25.6-25.6h125.44v-98.816c0-14.138 11.462-25.6 25.6-25.6s25.6 11.462 25.6 25.6v98.816h123.904c14.138 0 25.6 11.462 25.6 25.6v211.456c0 0.002 0 0.003 0 0.005 0 13.958-11.171 25.308-25.061 25.594z" />
<glyph unicode="&#xe92d;" glyph-name="download" d="M771.072 263.168c-14.138 0-25.6-11.462-25.6-25.6v-56.832h-222.72l-153.6 156.672h74.752c14.138 0 25.6 11.462 25.6 25.6v377.856c0 14.138-11.462 25.6-25.6 25.6s-25.6-11.462-25.6-25.6v-352.768h-117.76c-2.15-1.006-4.003-2.204-5.669-3.614l0.037 0.030c-2.452-2.548-4.374-5.625-5.578-9.040-0.291-1.484-0.427-2.99-0.427-4.528s0.136-3.044 0.395-4.507l-0.023 0.155c-0.043-0.536-0.067-1.161-0.067-1.792s0.024-1.256 0.072-1.874c0.065-4.71 2.006-9.036 5.118-12.209l-0.003 0.003 159.744-163.84h-201.216c-14.138 0-25.6-11.462-25.6-25.6s11.462-25.6 25.6-25.6h518.144c14.138 0 25.6 11.462 25.6 25.6v76.288c0 14.138-11.462 25.6-25.6 25.6zM512 715.264h34.304v-352.768c0-14.138 11.462-25.6 25.6-25.6h81.408l-69.632-71.68c-4.5-4.625-7.275-10.948-7.275-17.92 0-14.198 11.51-25.707 25.707-25.707 7.226 0 13.756 2.982 18.426 7.781l111.622 116.23c3.109 3.17 5.050 7.496 5.12 12.274 0.043 0.55 0.067 1.175 0.067 1.806s-0.024 1.256-0.072 1.874l0.005-0.082c0.237 1.308 0.373 2.814 0.373 4.352s-0.136 3.044-0.395 4.507c-1.235 3.437-3.158 6.513-5.617 9.070l0.008-0.008c-1.629 1.38-3.482 2.578-5.479 3.519l-6.809 0.065h-121.856v357.888c0 14.138-11.462 25.6-25.6 25.6h-59.904c-14.138 0-25.6-11.462-25.6-25.6s11.462-25.6 25.6-25.6z" />
<glyph unicode="&#xe92e;" glyph-name="edit" d="M916.48 561.152l-213.504 213.504c-4.64 4.677-11.070 7.572-18.176 7.572s-13.536-2.895-18.174-7.571l-385.538-385.538c-4.658-4.567-7.577-10.893-7.68-17.901v-204.819h-147.968c-14.138 0-25.6-11.462-25.6-25.6s11.462-25.6 25.6-25.6h403.968c13.983 0.203 25.24 11.585 25.24 25.597 0 6.98-2.794 13.308-7.324 17.927l-118.78 117.756c-4.652 4.652-11.078 7.529-18.176 7.529-14.196 0-25.705-11.508-25.705-25.705 0-7.098 2.877-13.524 7.529-18.176l75.264-75.264h-142.336v195.584l358.4 358.4 177.152-177.152-271.36-271.36c-4.652-4.652-7.529-11.078-7.529-18.176 0-14.196 11.508-25.705 25.705-25.705 7.098 0 13.524 2.877 18.176 7.529l290.816 291.328c4.525 4.614 7.318 10.941 7.318 17.92s-2.793 13.306-7.322 17.924z" />
<glyph unicode="&#xe92f;" glyph-name="envelope" d="M844.8 563.2c-14.138 0-25.6-11.462-25.6-25.6v-281.6h-614.4v358.4l292.864-204.8c4.073-2.857 9.133-4.566 14.592-4.566s10.519 1.709 14.674 4.621l332.718 230.345 3.584 4.096 4.096 8.704v4.608c0.083 0.768 0.131 1.658 0.131 2.56s-0.048 1.792-0.14 2.669 0.009-0.109 0.009-0.109c0.087 0.768 0.137 1.658 0.137 2.56s-0.050 1.792-0.146 2.668l0.010 4.5-3.584 3.584-4.096 2.56h-692.224l-4.096-2.56-3.584-3.584-6.144 1.024c-0.087-0.768-0.137-1.658-0.137-2.56s0.050-1.792 0.146-2.668l-0.010-435.092c0-14.138 11.462-25.6 25.6-25.6h665.6c14.138 0 25.6 11.462 25.6 25.6v307.2c-1.344 12.994-12.235 23.040-25.472 23.040-0.045 0-0.090 0-0.135 0zM512 466.432l-250.88 173.568h501.76z" />
<glyph unicode="&#xe930;" glyph-name="eraser" d="M882.688 599.040l-173.056 172.544c-4.64 4.677-11.070 7.572-18.176 7.572s-13.536-2.895-18.174-7.571l-377.346-377.346c-4.658-4.567-7.577-10.893-7.68-17.901v-102.419c0-0.046 0-0.1 0-0.154 0-6.904 2.733-13.169 7.176-17.774l84.985-86.008h-220.672c-14.138 0-25.6-11.462-25.6-25.6s11.462-25.6 25.6-25.6h399.872c14.138 0 25.6 11.462 25.6 25.6s-11.462 25.6-25.6 25.6h-105.984c-18.432 16.384-74.24 73.216-114.176 112.64v82.944l150.528 150.016 132.608-132.608c4.652-4.652 11.078-7.529 18.176-7.529 14.196 0 25.705 11.508 25.705 25.705 0 7.098-2.877 13.524-7.529 18.176l-132.608 131.072 165.376 165.376 147.456-147.456v-80.896l-270.848-270.848c-4.652-4.652-7.529-11.078-7.529-18.176 0-14.196 11.508-25.705 25.705-25.705 7.098 0 13.524 2.877 18.176 7.529l278.528 278.016c4.658 4.567 7.577 10.893 7.68 17.901v102.419c0.034 0.496 0.054 1.076 0.054 1.66 0 7.434-3.169 14.128-8.229 18.804z" />
<glyph unicode="&#xe931;" glyph-name="exchange" d="M225.28 366.080c-0.633-0.056-1.369-0.087-2.113-0.087-7.202 0-13.71 2.974-18.361 7.761l-153.606 153.606c-4.677 4.64-7.572 11.070-7.572 18.176s2.895 13.536 7.571 18.174l153.602 153.602c4.652 4.652 11.078 7.529 18.176 7.529 14.196 0 25.705-11.508 25.705-25.705 0-7.098-2.877-13.524-7.529-18.176l-133.12-135.68 135.168-135.168c4.527-4.614 7.32-10.942 7.32-17.923 0-14.012-11.257-25.395-25.221-25.597zM798.72 120.32c-13.983 0.203-25.24 11.585-25.24 25.597 0 6.98 2.794 13.308 7.324 17.927l135.164 135.164-135.168 135.168c-4.589 4.775-7.415 11.273-7.415 18.432 0 14.699 11.916 26.615 26.615 26.615 7.541 0 14.349-3.136 19.192-8.175l153.608-153.609c4.677-4.64 7.572-11.070 7.572-18.176s-2.895-13.536-7.571-18.174l-153.602-153.602c-4.612-4.513-10.931-7.298-17.9-7.298-0.909 0-1.806 0.047-2.69 0.14zM387.584 271.872c-0.248-0.001-0.54-0.002-0.833-0.002-41.924 0-80.124 15.946-108.865 42.103-4.675 4.559-7.657 11.089-7.657 18.315 0 14.198 11.51 25.707 25.707 25.707 6.972 0 13.295-2.775 17.926-7.281 19.605-17.21 45.478-27.714 73.804-27.714 1.412 0 2.817 0.026 4.216 0.078l376.118-0.006c14.138 0 25.6-11.462 25.6-25.6s-11.462-25.6-25.6-25.6h-380.416zM722.432 486.912c-0.046 0-0.1 0-0.154 0-6.904 0-13.169 2.733-17.774 7.176-19.87 17.202-45.98 27.688-74.539 27.688-1.152 0-2.301-0.017-3.445-0.051l-378.712 0.004c-14.138 0-25.6 11.462-25.6 25.6s11.462 25.6 25.6 25.6h377.344c1.718 0.065 3.737 0.102 5.764 0.102 42.165 0 80.599-15.978 109.576-42.21 4.694-4.539 7.695-11.073 7.695-18.308 0-14.138-11.462-25.6-25.6-25.6-0.054 0-0.109 0-0.163 0.001z" />
<glyph unicode="&#xe932;" glyph-name="file-code" d="M186.368 270.336v89.088c-0.108 1.415-0.17 3.065-0.17 4.73 0 18.123 7.299 34.542 19.119 46.476 12.263 10.319 28.238 16.593 45.679 16.593 1.941 0 3.865-0.078 5.767-0.23 1.218 0.116 2.933 0.173 4.661 0.173 17.468 0 33.574-5.832 46.477-15.655 11.41-9.324 18.756-23.616 18.756-39.624 0-0.061 0-0.122 0-0.184 0.072-0.611 0.113-1.33 0.113-2.059 0-4.232-1.388-8.14-3.733-11.294-2.936-2.223-6.706-3.593-10.795-3.593-0.513 0-1.021 0.022-1.523 0.064-10.686-0.004-15.806 3.58-16.318 10.748 0.007 0.249 0.011 0.542 0.011 0.836 0 17.249-13.983 31.232-31.232 31.232-2.547 0-5.023-0.305-7.393-0.88q-36.138 0.044-36.138-39.38v-89.6q0-39.424 37.376-39.424c0.562-0.025 1.221-0.039 1.884-0.039 5.954 0 11.642 1.142 16.856 3.219 4.058 2.556 7.325 6.654 8.868 11.519 1.839 3.229 3.405 6.792 4.553 10.538 0.238 2.049 0.319 4.012 0.319 5.995s-0.081 3.946-0.24 5.887c0.017 6.913 6.161 10.497 15.889 10.497 0.529 0.054 1.143 0.085 1.765 0.085 4.16 0 7.998-1.378 11.082-3.703 2.273-3.016 3.67-6.878 3.67-11.066 0-0.78-0.048-1.548-0.142-2.302 0.027-0.413 0.037-1.004 0.037-1.598 0-16.020-7.358-30.322-18.879-39.711-12.806-10.058-29.039-16.086-46.68-16.086-1.623 0-3.234 0.051-4.832 0.152-1.535-0.167-3.575-0.256-5.635-0.256-17.337 0-33.204 6.289-45.445 16.711-9.052 11.161-14.596 25.66-14.596 41.453 0 3.775 0.317 7.476 0.925 11.077zM351.232 270.336v89.088c-0.131 1.561-0.206 3.379-0.206 5.215 0 17.884 7.108 34.109 18.654 46.002 12.315 10.302 28.344 16.567 45.836 16.567 1.882 0 3.747-0.073 5.593-0.215 1.255 0.125 3.003 0.188 4.767 0.188 17.597 0 33.734-6.252 46.311-16.655 11.692-11.831 18.992-28.249 18.992-46.372 0-1.664-0.062-3.314-0.183-4.948l0.013-89.382c0.108-1.415 0.17-3.065 0.17-4.73 0-18.123-7.299-34.542-19.119-46.476-12.388-10.306-28.471-16.565-46.015-16.565-1.823 0-3.63 0.068-5.418 0.2-1.362-0.141-3.227-0.214-5.109-0.214-17.492 0-33.521 6.266-45.965 16.676-11.44 11.789-18.564 28.030-18.564 45.934 0 2.002 0.089 3.983 0.263 5.939zM383.488 270.336q0-39.424 35.84-39.424c0.66-0.044 1.43-0.069 2.206-0.069 9.479 0 18.086 3.733 24.431 9.809 5.814 7.075 9.347 16.241 9.347 26.232 0 1.215-0.052 2.418-0.155 3.607l0.011 88.933c0.092 1.034 0.144 2.237 0.144 3.452 0 9.991-3.533 19.156-9.417 26.316-5.963 4.842-13.733 7.819-22.198 7.819-1.359 0-2.7-0.077-4.019-0.226q-35.678 0.015-35.678-39.409zM525.824 214.016v204.8c0.169 2.992 1.741 5.584 4.063 7.147 2.741 1.947 6.115 3.101 9.759 3.101 0.181 0 0.361-0.003 0.541-0.008l53.734 0.001c1.499 0.11 3.248 0.173 5.011 0.173 17.597 0 33.734-6.252 46.311-16.655 11.692-11.831 18.992-28.249 18.992-46.372 0-1.664-0.062-3.314-0.183-4.948l0.013-87.334c0.108-1.415 0.17-3.065 0.17-4.73 0-18.123-7.299-34.542-19.119-46.476-12.388-10.306-28.471-16.565-46.015-16.565-1.823 0-3.63 0.068-5.418 0.2l-53.521-0.014c-0.2-0.009-0.434-0.014-0.67-0.014-3.593 0-6.917 1.157-9.618 3.118-1.801 0.998-3.229 2.592-4.026 4.514zM558.080 232.448h35.84q36.352 0 36.352 39.424v87.552q0 39.424-36.352 39.424h-35.84zM700.416 214.016v204.8c0 0.005 0 0.011 0 0.017 0 3.181 1.612 5.986 4.063 7.642 2.74 1.947 6.115 3.101 9.758 3.101 0.181 0 0.361-0.003 0.541-0.008l108.518 0.001c0.235 0.023 0.509 0.036 0.786 0.036 3.114 0 5.847-1.636 7.385-4.095 1.796-2.961 2.847-6.496 2.847-10.277s-1.051-7.315-2.876-10.329c-1.513-2.389-4.235-4.012-7.337-4.012-0.103 0-0.205 0.002-0.308 0.005h-91.121v-70.144h47.104c0.005 0 0.011 0 0.017 0 3.181 0 5.986-1.612 7.642-4.063 1.939-2.568 3.093-5.773 3.093-9.249 0.006-0.153 0.009-0.334 0.009-0.515 0-3.065-0.962-5.905-2.6-8.235-1.647-2.439-4.451-4.050-7.632-4.050-0.006 0-0.012 0-0.018 0h-47.103v-70.656h90.624c0.087 0.003 0.19 0.005 0.293 0.005 3.102 0 5.825-1.622 7.366-4.065 1.849-2.946 2.934-6.484 2.934-10.276s-1.085-7.33-2.96-10.321c-1.512-2.415-4.244-4.050-7.359-4.050-0.277 0-0.55 0.013-0.82 0.038l-106.461-0.003c-0.153-0.005-0.333-0.008-0.514-0.008-3.644 0-7.018 1.153-9.778 3.115-2.797 0.78-5.041 2.856-6.071 5.534zM563.2 704c-12.442 0-22.528-10.086-22.528-22.528s10.086-22.528 22.528-22.528h30.208c12.442 0 22.528 10.086 22.528 22.528s-10.086 22.528-22.528 22.528zM299.52 652.8c-12.442 0-22.528-10.086-22.528-22.528s10.086-22.528 22.528-22.528h149.504c12.442 0 22.528 10.086 22.528 22.528s-10.086 22.528-22.528 22.528zM689.664 799.744h-479.744c-12.442 0-22.528-10.086-22.528-22.528v-132.608l-140.288-89.6c-2.382-1.22-4.413-2.76-6.133-4.596l-0.011-0.012c-0.346-1.462-0.544-3.14-0.544-4.864s0.198-3.402 0.573-5.013l-0.029-399.723c0-12.442 10.086-22.528 22.528-22.528h563.2c12.442 0 22.528 10.086 22.528 22.528s-10.086 22.528-22.528 22.528h-544.768v350.208h422.4c12.442 0 22.528 10.086 22.528 22.528s-10.086 22.528-22.528 22.528h-271.872v196.608h433.152v-231.936c0-12.442 10.086-22.528 22.528-22.528s22.528 10.086 22.528 22.528v256c-1.015 11.053-9.882 19.743-20.924 20.476zM136.192 558.592l51.2 32.256v-32.256zM980.992 185.344l-78.336 79.872c-3.939 3.454-9.133 5.561-14.819 5.561-12.442 0-22.528-10.086-22.528-22.528 0-5.431 1.922-10.413 5.122-14.303l62.433-63.961-62.464-60.416c-5.061-4.163-8.263-10.426-8.263-17.437 0-12.442 10.086-22.528 22.528-22.528 6.755 0 12.816 2.973 16.945 7.683l78.358 76.314c4.042 4.071 6.541 9.68 6.541 15.872s-2.498 11.801-6.542 15.873z" />
<glyph unicode="&#xe933;" glyph-name="file-doc" d="M271.872 226.816v204.8c0.169 2.992 1.741 5.584 4.063 7.147 2.741 1.947 6.115 3.101 9.759 3.101 0.181 0 0.361-0.003 0.541-0.008l53.734 0.001c1.499 0.11 3.248 0.173 5.011 0.173 17.597 0 33.734-6.252 46.311-16.655 11.692-11.831 18.992-28.249 18.992-46.372 0-1.664-0.062-3.314-0.183-4.948l0.013-87.334c0.108-1.415 0.17-3.065 0.17-4.73 0-18.123-7.299-34.542-19.119-46.476-12.45-10.3-28.586-16.552-46.183-16.552-1.763 0-3.512 0.063-5.244 0.186l-53.527-0.013c-0.153-0.005-0.333-0.008-0.514-0.008-3.644 0-7.018 1.153-9.778 3.115-1.796 0.996-3.225 2.59-4.021 4.512zM304.128 243.2h35.84q36.352 0 36.352 39.424v89.6q0 39.424-36.352 39.424h-35.84zM444.416 282.624v89.6c-0.131 1.561-0.206 3.379-0.206 5.215 0 17.884 7.108 34.109 18.654 46.002 12.315 10.302 28.344 16.567 45.836 16.567 1.882 0 3.747-0.073 5.593-0.215 1.255 0.125 3.003 0.188 4.767 0.188 17.597 0 33.734-6.252 46.311-16.655 11.692-11.831 18.992-28.249 18.992-46.372 0-1.664-0.062-3.314-0.183-4.948l0.013-89.382c0.108-1.415 0.17-3.065 0.17-4.73 0-18.123-7.299-34.542-19.119-46.476-12.45-10.3-28.586-16.552-46.183-16.552-1.763 0-3.512 0.063-5.244 0.186-1.368-0.141-3.233-0.213-5.115-0.213-17.492 0-33.521 6.266-45.965 16.676-11.417 11.785-18.525 28.009-18.525 45.894 0 1.835 0.075 3.653 0.222 5.451zM476.672 282.624q0-39.424 35.84-39.424c0.66-0.044 1.43-0.069 2.206-0.069 9.479 0 18.086 3.733 24.431 9.809 5.814 7.075 9.347 16.241 9.347 26.232 0 1.215-0.052 2.418-0.155 3.607l0.011 89.445c0.092 1.034 0.144 2.237 0.144 3.452 0 9.991-3.533 19.156-9.417 26.316-6.275 5.992-14.882 9.725-24.36 9.725-0.776 0-1.547-0.025-2.31-0.074q-35.736 0.005-35.736-39.419zM614.4 282.624v89.6c-0.108 1.415-0.17 3.065-0.17 4.73 0 18.123 7.299 34.542 19.119 46.476 12.263 10.319 28.238 16.593 45.679 16.593 1.941 0 3.865-0.078 5.767-0.23 1.218 0.116 2.933 0.173 4.661 0.173 17.468 0 33.574-5.832 46.477-15.655 11.41-9.324 18.756-23.616 18.756-39.624 0-0.061 0-0.122 0-0.184 0.072-0.611 0.113-1.33 0.113-2.059 0-4.232-1.388-8.14-3.733-11.294-2.936-2.223-6.706-3.593-10.795-3.593-0.513 0-1.021 0.022-1.523 0.064-10.686-0.004-15.806 3.58-16.318 10.748 0.036 0.564 0.057 1.223 0.057 1.886 0 17.249-13.983 31.232-31.232 31.232-1.646 0-3.263-0.127-4.84-0.373q-36.177 0.022-36.177-39.402v-89.6q0-39.424 37.376-39.424c0.562-0.025 1.221-0.039 1.884-0.039 5.954 0 11.642 1.142 16.856 3.219 4.297 1.682 8.018 4.906 10.39 9.007 1.852 3.182 3.418 6.745 4.566 10.49 0.241 2.049 0.324 4.012 0.324 5.995s-0.083 3.945-0.245 5.886c0.017 6.914 6.161 10.498 15.889 10.498 0.897 0.207 1.927 0.326 2.984 0.326 7.635 0 13.824-6.189 13.824-13.824 0-1.207-0.155-2.378-0.445-3.494 0.039-0.407 0.049-0.998 0.049-1.592 0-16.020-7.358-30.322-18.879-39.711-12.865-10.053-29.15-16.075-46.842-16.075-1.566 0-3.121 0.047-4.663 0.14-1.49-0.156-3.472-0.239-5.473-0.239-17.388 0-33.31 6.281-45.619 16.699-11.225 11.751-18.199 27.837-18.199 45.551 0 2.501 0.139 4.969 0.41 7.398zM690.688 718.336h-29.696c-12.442 0-22.528-10.086-22.528-22.528s10.086-22.528 22.528-22.528h29.696c12.442 0 22.528 10.086 22.528 22.528s-10.086 22.528-22.528 22.528zM397.824 663.552c-12.442 0-22.528-10.086-22.528-22.528s10.086-22.528 22.528-22.528h150.016c12.442 0 22.528 10.086 22.528 22.528s-10.086 22.528-22.528 22.528zM810.496 536.064v256c0 12.442-10.086 22.528-22.528 22.528h-480.768c-12.442 0-22.528-10.086-22.528-22.528v-134.656l-138.752-89.6c-1.992-1.434-3.686-3.128-5.075-5.055l-0.045-0.065c-0.346-1.462-0.544-3.14-0.544-4.864s0.198-3.402 0.573-5.013l-0.029-394.603c0-12.442 10.086-22.528 22.528-22.528h444.928c12.442 0 22.528 10.086 22.528 22.528s-10.086 22.528-22.528 22.528h-428.032v345.6h422.4c12.442 0 22.528 10.086 22.528 22.528s-10.086 22.528-22.528 22.528h-271.872v196.096h437.248v-231.424c0-12.442 10.086-22.528 22.528-22.528s22.528 10.086 22.528 22.528zM235.008 571.392l51.2 32.256v-32.256zM911.872 198.144l-78.336 79.872c-4.163 5.061-10.426 8.263-17.437 8.263-12.442 0-22.528-10.086-22.528-22.528 0-6.755 2.973-12.816 7.683-16.945l62.49-64.022-61.952-60.416c-5.061-4.163-8.263-10.426-8.263-17.437 0-12.442 10.086-22.528 22.528-22.528 6.755 0 12.816 2.973 16.945 7.683l78.358 76.314c4.042 4.071 6.541 9.68 6.541 15.872s-2.498 11.801-6.542 15.873z" />
<glyph unicode="&#xe934;" glyph-name="file-pdf" d="M281.088 226.816v204.8c0.117 2.895 1.481 5.449 3.567 7.154 2.309 1.936 5.291 3.104 8.545 3.104 0.242 0 0.483-0.006 0.722-0.019l58.847 0.001c1.040 0.055 2.257 0.086 3.481 0.086 17.25 0 33.046-6.227 45.262-16.556 11.152-11.663 18.082-27.634 18.082-45.223 0-2.074-0.096-4.126-0.285-6.151l0.020 0.259c0.129-1.533 0.202-3.318 0.202-5.12 0-18.006-7.319-34.303-19.144-46.077-12.457-10.308-28.594-16.559-46.191-16.559-1.763 0-3.512 0.063-5.244 0.186l-35.607-0.013v-75.776c0-3.308-1.845-6.184-4.562-7.657-3.299-1.828-7.181-2.891-11.31-2.891s-8.011 1.063-11.385 2.93c-2.021 0.483-3.803 1.765-4.98 3.492zM313.344 329.216h37.888c0.571-0.033 1.239-0.052 1.911-0.052 9.661 0 18.404 3.935 24.711 10.29 5.822 7.15 9.347 16.368 9.347 26.41 0 1.157-0.047 2.304-0.139 3.438l0.010 3.435c0.092 1.034 0.144 2.237 0.144 3.452 0 9.991-3.533 19.156-9.417 26.316-6.275 5.992-14.882 9.725-24.36 9.725-0.776 0-1.547-0.025-2.31-0.074l-37.784 0.005zM446.976 226.816v204.8c0.169 2.992 1.741 5.584 4.063 7.147 2.741 1.947 6.115 3.101 9.759 3.101 0.181 0 0.361-0.003 0.541-0.008l53.734 0.001c1.499 0.11 3.248 0.173 5.011 0.173 17.597 0 33.734-6.252 46.311-16.655 11.692-11.831 18.992-28.249 18.992-46.372 0-1.664-0.062-3.314-0.183-4.948l0.013-87.334c0.108-1.415 0.17-3.065 0.17-4.73 0-18.123-7.299-34.542-19.119-46.476-12.45-10.3-28.586-16.552-46.183-16.552-1.763 0-3.512 0.063-5.244 0.186l-54.039-0.013c-0.153-0.005-0.333-0.008-0.514-0.008-3.644 0-7.018 1.153-9.778 3.115-1.592 1.071-2.842 2.651-3.512 4.509zM479.232 243.2h35.84q36.352 0 36.352 39.424v89.6q0 39.424-36.352 39.424h-35.84zM621.568 226.816v204.8c0 0.005 0 0.011 0 0.017 0 3.181 1.612 5.986 4.063 7.642 2.794 1.946 6.219 3.096 9.913 3.096 0.126 0 0.252-0.001 0.378-0.004h106.989c0.087 0.003 0.19 0.005 0.293 0.005 3.102 0 5.825-1.622 7.366-4.065 1.699-2.985 2.688-6.515 2.688-10.276s-0.989-7.291-2.721-10.344c-1.508-2.374-4.231-3.997-7.333-3.997-0.103 0-0.205 0.002-0.308 0.005h-89.073v-70.144h47.104c0.087 0.003 0.19 0.005 0.293 0.005 3.102 0 5.825-1.622 7.366-4.065 1.635-2.429 2.597-5.377 2.597-8.551 0-0.247-0.006-0.492-0.017-0.736 0.004-0.074 0.006-0.201 0.006-0.328 0-3.114-0.959-6.004-2.597-8.392-1.53-2.428-4.253-4.050-7.355-4.050-0.103 0-0.205 0.002-0.308 0.005h-47.089v-88.576c0.009-0.151 0.015-0.327 0.015-0.504 0-3.313-1.852-6.195-4.576-7.665-3.318-1.745-7.196-2.756-11.31-2.756s-7.992 1.011-11.399 2.798c-2.445 1.043-4.353 3.287-4.974 6.021zM690.688 718.336h-29.696c-12.442 0-22.528-10.086-22.528-22.528s10.086-22.528 22.528-22.528h29.696c12.442 0 22.528 10.086 22.528 22.528s-10.086 22.528-22.528 22.528zM397.824 663.552c-12.442 0-22.528-10.086-22.528-22.528s10.086-22.528 22.528-22.528h150.016c12.442 0 22.528 10.086 22.528 22.528s-10.086 22.528-22.528 22.528zM787.968 513.536c12.442 0 22.528 10.086 22.528 22.528v256c0 12.442-10.086 22.528-22.528 22.528h-480.768c-12.442 0-22.528-10.086-22.528-22.528v-134.656l-138.752-89.6c-1.992-1.434-3.686-3.128-5.075-5.055l-0.045-0.065c-0.346-1.462-0.544-3.14-0.544-4.864s0.198-3.402 0.573-5.013l-0.029-394.603c0-12.442 10.086-22.528 22.528-22.528h444.928c12.442 0 22.528 10.086 22.528 22.528s-10.086 22.528-22.528 22.528h-428.032v345.6h422.4c12.442 0 22.528 10.086 22.528 22.528s-10.086 22.528-22.528 22.528h-271.872v196.096h437.248v-231.424c0-0.043 0-0.095 0-0.146 0-11.54 8.677-21.053 19.862-22.372zM235.008 571.392l51.2 32.256v-32.256zM882.176 198.144l-78.336 79.872c-4.163 5.061-10.426 8.263-17.437 8.263-12.442 0-22.528-10.086-22.528-22.528 0-6.755 2.973-12.816 7.683-16.945l62.49-64.022-61.952-60.416c-5.061-4.163-8.263-10.426-8.263-17.437 0-12.442 10.086-22.528 22.528-22.528 6.755 0 12.816 2.973 16.945 7.683l78.358 76.314c4.042 4.071 6.541 9.68 6.541 15.872s-2.498 11.801-6.542 15.873z" />
<glyph unicode="&#xe935;" glyph-name="file-undo" d="M366.080 662.528h-14.848c-1.117 0.163-2.407 0.256-3.719 0.256-14.987 0-27.136-12.149-27.136-27.136s12.149-27.136 27.136-27.136c1.312 0 2.601 0.093 3.863 0.273l14.703-0.017c13.302 1.892 23.417 13.205 23.417 26.88s-10.116 24.988-23.273 26.863zM453.12 662.528h193.536v-53.76h-193.536v53.76zM366.080 559.104h-14.848c-1.117 0.163-2.407 0.256-3.719 0.256-14.987 0-27.136-12.149-27.136-27.136s12.149-27.136 27.136-27.136c1.312 0 2.601 0.093 3.863 0.273l14.703-0.017c13.302 1.892 23.417 13.205 23.417 26.88s-10.116 24.988-23.273 26.863zM740.864 367.104c-35.713 35.924-85.163 58.157-139.806 58.157-33.299 0-64.669-8.257-92.176-22.834-9.506-4.995-18.555-10.772-27.052-17.237l21.466 105.306-52.736 8.704-40.96-191.488 193.536-38.912 10.752 51.2-101.888 22.528c6.718 5.346 14.263 10.275 22.254 14.472 20.317 10.633 43.457 16.651 68.004 16.651 81.155 0 146.944-65.789 146.944-146.944 0-21.849-4.769-42.585-13.322-61.222l-460.424 0.915v563.2h458.24v-226.304h51.2v276.992h-559.616v-665.6h539.648l7.168 12.8c16.847 28.524 26.8 62.855 26.8 99.51 0 54.714-22.177 104.249-58.032 140.106zM475.136 349.696v2.56l3.584-3.584z" />
</font>
</defs>
</svg>
